<svg width="20" height="20" viewBox="0 0 20 20" fill="none" xmlns="http://www.w3.org/2000/svg">
<path d="M17.0869 13.1196C16.577 12.9016 16.1427 12.5381 15.8382 12.0747C15.5337 11.6112 15.3724 11.0683 15.3746 10.5138C15.3812 10.0188 15.5138 9.53364 15.7598 9.10408C16.0059 8.67451 16.3573 8.31469 16.7809 8.05855C16.8767 7.99932 16.9596 7.92127 17.0244 7.82912C17.0892 7.73697 17.1347 7.63263 17.158 7.52241C17.1814 7.41219 17.1821 7.29837 17.1603 7.18785C17.1384 7.07733 17.0943 6.97239 17.0307 6.87938C16.6499 6.3256 16.1535 5.86106 15.5757 5.51782C14.9978 5.17457 14.3524 4.96081 13.684 4.89127C14.3061 3.90389 14.5885 2.74018 14.488 1.57746C14.4684 1.36633 14.3677 1.171 14.2072 1.03247C14.0467 0.893938 13.8387 0.82297 13.627 0.834457C12.1961 0.961989 10.8697 1.63687 9.9242 2.71841C9.32485 3.41289 8.90191 4.24174 8.69129 5.13458C8.25614 4.98732 7.80055 4.90933 7.34119 4.90347C6.49076 4.92757 5.66099 5.171 4.93232 5.61015C4.20366 6.0493 3.60082 6.66927 3.18226 7.40996C1.60918 10.1411 2.5715 14.2337 4.27559 16.6971C4.95918 17.6842 5.98498 19.1661 7.53243 19.1661C7.56294 19.1661 7.59387 19.1661 7.62479 19.1645C8.14327 19.1351 8.65087 19.0037 9.11853 18.7779C9.49207 18.5886 9.90419 18.4878 10.323 18.4833C10.7168 18.4881 11.104 18.5845 11.4541 18.7649C11.9657 19.0069 12.5232 19.1365 13.0891 19.1449C14.6833 19.1148 15.6249 17.7395 16.3125 16.7345C16.8551 15.9361 17.2797 15.0637 17.5731 14.1441C17.6357 13.9435 17.6204 13.7267 17.5303 13.5368C17.4401 13.347 17.2818 13.198 17.0869 13.1196ZM11.186 3.80647C11.6237 3.31689 12.1721 2.93908 12.7855 2.70459C12.6513 3.36479 12.3544 3.98103 11.9217 4.49739C11.628 4.84979 11.2706 5.14381 10.8682 5.36412L10.8658 5.36496C10.8422 5.37472 10.8186 5.38367 10.7949 5.39344C10.6395 5.45447 10.4474 5.53016 10.2993 5.57898C10.4424 4.92342 10.7472 4.31407 11.186 3.80647ZM14.9372 15.7938C14.2675 16.772 13.7406 17.4661 13.0586 17.4783C12.7289 17.4773 12.4048 17.3937 12.1158 17.235C11.5571 16.9628 10.9444 16.8198 10.323 16.8167C9.67995 16.8199 9.04566 16.9659 8.46587 17.2439C8.18398 17.3878 7.87645 17.4747 7.56092 17.4995H7.5361C6.8586 17.4995 6.12985 16.4472 5.64604 15.7482C4.43551 13.9985 3.31898 10.5122 4.62676 8.24165C4.90099 7.75032 5.29758 7.33823 5.77803 7.04536C6.25849 6.75249 6.80649 6.58879 7.36886 6.57015L7.39693 6.56932C7.87133 6.60963 8.3346 6.73506 8.76453 6.9396C8.87399 6.98272 8.98182 7.02586 9.08883 7.06573C9.11609 7.07713 9.14417 7.08771 9.17265 7.09666C9.4692 7.21593 9.78421 7.28285 10.1036 7.29442C10.5559 7.25847 10.9977 7.13957 11.407 6.94367C11.9839 6.66369 12.618 6.52187 13.2592 6.52944C13.945 6.55628 14.6034 6.80598 15.1346 7.24071C14.6807 7.65893 14.3192 8.16749 14.0736 8.7337C13.8279 9.29992 13.7034 9.91126 13.708 10.5285V10.5293C13.7033 11.2765 13.8882 12.0127 14.2454 12.6689C14.6027 13.3252 15.1206 13.8801 15.7506 14.2817C15.5312 14.8119 15.2587 15.3185 14.9372 15.7938Z" fill="#1797DA"/>
</svg>
