<svg width="28" height="28" viewBox="0 0 28 28" fill="none" xmlns="http://www.w3.org/2000/svg">
<path fill-rule="evenodd" clip-rule="evenodd" d="M1.02177 20.415C1.24909 20.1877 1.55739 20.06 1.87887 20.06H26.1213C26.7907 20.06 27.3334 20.6026 27.3334 21.2721C27.3334 22.8795 26.6949 24.421 25.5583 25.5576C24.4217 26.6942 22.8802 27.3327 21.2728 27.3327H6.72735C5.11998 27.3327 3.57844 26.6942 2.44186 25.5576C1.30527 24.421 0.666748 22.8795 0.666748 21.2721C0.666748 20.9506 0.794453 20.6423 1.02177 20.415ZM3.29896 22.4842C3.47806 22.9907 3.7689 23.4562 4.15606 23.8434C4.83801 24.5253 5.76293 24.9084 6.72735 24.9084H21.2728C22.2372 24.9084 23.1622 24.5253 23.8441 23.8434C24.2313 23.4562 24.5221 22.9907 24.7012 22.4842H3.29896Z" fill="#3AA7E0"/>
<path fill-rule="evenodd" clip-rule="evenodd" d="M11.4465 0.672949C11.8294 0.631841 12.2091 0.775173 12.4694 1.05909L25.8027 15.6045C26.1275 15.9589 26.2122 16.4717 26.0187 16.9117C25.8251 17.3517 25.3899 17.6357 24.9092 17.6357H3.09099C2.65697 17.6357 2.25608 17.4037 2.03991 17.0273C1.82374 16.651 1.8253 16.1877 2.04399 15.8128L10.5288 1.26739C10.7229 0.934711 11.0635 0.714057 11.4465 0.672949ZM11.7939 3.90988L5.20134 15.2115H22.1537L11.7939 3.90988Z" fill="#3AA7E0"/>
<path fill-rule="evenodd" clip-rule="evenodd" d="M11.5758 0.666025C12.2453 0.666025 12.788 1.20871 12.788 1.87815V21.2721C12.788 21.9415 12.2453 22.4842 11.5758 22.4842C10.9064 22.4842 10.3637 21.9415 10.3637 21.2721V1.87815C10.3637 1.20871 10.9064 0.666025 11.5758 0.666025Z" fill="#3AA7E0"/>
</svg>
