<svg width="30" height="28" viewBox="0 0 30 28" fill="none" xmlns="http://www.w3.org/2000/svg">
<g id="Vector">
<path fill-rule="evenodd" clip-rule="evenodd" d="M11.375 0.843392C12.0317 0.469931 12.8636 0.705403 13.233 1.36933L26.5353 25.2769C26.9047 25.9409 26.6718 26.7818 26.0151 27.1553C25.3583 27.5288 24.5265 27.2933 24.157 26.6294L10.8547 2.72175C10.4853 2.05782 10.7182 1.21685 11.375 0.843392Z" fill="#3AA7E0"/>
<path fill-rule="evenodd" clip-rule="evenodd" d="M18.6249 0.843392C19.2816 1.21685 19.5145 2.05782 19.1451 2.72175L5.84279 26.6294C5.47338 27.2933 4.64152 27.5288 3.98478 27.1553C3.32805 26.7818 3.09513 25.9409 3.46454 25.2769L16.7669 1.36933C17.1363 0.705403 17.9681 0.469931 18.6249 0.843392Z" fill="#3AA7E0"/>
<path fill-rule="evenodd" clip-rule="evenodd" d="M0.333252 25.9532C0.333252 25.1914 0.944088 24.5739 1.69759 24.5739H28.3022C29.0557 24.5739 29.6666 25.1914 29.6666 25.9532C29.6666 26.7149 29.0557 27.3324 28.3022 27.3324H1.69759C0.944088 27.3324 0.333252 26.7149 0.333252 25.9532Z" fill="#3AA7E0"/>
<path fill-rule="evenodd" clip-rule="evenodd" d="M15.7019 17.2993C16.348 17.6912 16.5575 18.5385 16.1698 19.1917L11.7357 26.6628C11.348 27.316 10.51 27.5278 9.86386 27.1359C9.21774 26.744 9.00822 25.8967 9.3959 25.2435L13.83 17.7724C14.2177 17.1192 15.0557 16.9074 15.7019 17.2993Z" fill="#3AA7E0"/>
<path fill-rule="evenodd" clip-rule="evenodd" d="M14.298 17.2993C14.9441 16.9074 15.7822 17.1192 16.1698 17.7724L20.6039 25.2435C20.9916 25.8967 20.7821 26.744 20.136 27.1359C19.4898 27.5278 18.6518 27.316 18.2641 26.6628L13.83 19.1917C13.4423 18.5385 13.6518 17.6912 14.298 17.2993Z" fill="#3AA7E0"/>
</g>
</svg>
