<svg width="24" height="24" viewBox="0 0 24 24" fill="none" xmlns="http://www.w3.org/2000/svg">
<g clip-path="url(#clip0_670_26236)">
<path d="M16.55 13C17.3 13 17.96 12.59 18.3 11.97L21.88 5.48C22.25 4.82 21.77 4 21.01 4H6.21L5.54008 2.57464C5.37524 2.22391 5.02259 2 4.63506 2H3C2.44772 2 2 2.44772 2 3C2 3.55228 2.44772 4 3 4H3.36753C3.75379 4 4.10551 4.22246 4.27104 4.57145L7.6 11.59L6.25 14.03C5.52 15.37 6.48 17 8 17H19C19.5523 17 20 16.5523 20 16C20 15.4477 19.5523 15 19 15H8L9.1 13H16.55ZM7.16 6H19.31L16.55 11H9.53L7.16 6ZM8 18C6.9 18 6.01 18.9 6.01 20C6.01 21.1 6.9 22 8 22C9.1 22 10 21.1 10 20C10 18.9 9.1 18 8 18ZM18 18C16.9 18 16.01 18.9 16.01 20C16.01 21.1 16.9 22 18 22C19.1 22 20 21.1 20 20C20 18.9 19.1 18 18 18Z" fill="#2A333C"/>
</g>
<defs>
<clipPath id="clip0_670_26236">
<rect width="24" height="24" fill="white"/>
</clipPath>
</defs>
</svg>
