<svg width="21" height="21" viewBox="0 0 21 21" fill="none" xmlns="http://www.w3.org/2000/svg">
<path fill-rule="evenodd" clip-rule="evenodd" d="M5.22897 2.99677C4.27585 2.73492 3.47752 2.74692 3.02919 2.87344C2.99753 2.97825 2.96609 3.1491 2.95081 3.39937C2.91527 3.98159 2.97873 4.75961 3.09399 5.57804C3.20755 6.38435 3.36386 7.17938 3.49292 7.77658C3.55722 8.07413 3.61425 8.3202 3.65499 8.49107L3.65639 8.49695C3.81814 8.77546 3.84264 9.12689 3.69092 9.43815C3.25121 10.3402 3.00002 11.3498 3.00002 12.444C3.00002 16.2613 6.37531 19 11 19C15.6142 19 19 16.1598 19 12.444C19 11.4247 18.7207 10.4136 18.2165 9.47213C18.0306 9.12503 18.0704 8.71733 18.285 8.41738C18.3238 8.25268 18.3738 8.0347 18.4291 7.77858C18.5582 7.18138 18.7145 6.38635 18.8281 5.58004C18.9433 4.76161 19.0068 3.98359 18.9712 3.40137C18.956 3.1511 18.9245 2.98025 18.8929 2.87544C18.4445 2.74892 17.6462 2.73692 16.6929 2.99878C15.6834 3.27611 14.6658 3.8182 13.9331 4.61591C13.7535 5.08331 13.2481 5.35214 12.7513 5.22458C12.1788 5.07756 11.5902 5.00213 10.9991 5.00001C10.4013 5.00105 9.8055 5.06877 9.22271 5.20189C8.81359 5.29535 8.40577 5.12334 8.17953 4.79913C8.12773 4.76005 8.079 4.71534 8.0342 4.66504C7.29894 3.83937 6.2599 3.28 5.22897 2.99677ZM21 12.444C21 11.2286 20.7084 10.0559 20.2067 8.98132L20.2125 8.95695C20.256 8.77446 20.3163 8.51444 20.384 8.20105C20.519 7.57637 20.6858 6.73016 20.8085 5.85896C20.9295 4.9999 21.0154 4.06416 20.9675 3.27951C20.9438 2.89068 20.8842 2.47852 20.7446 2.11274C20.6075 1.75343 20.3371 1.30026 19.8071 1.07912C18.8228 0.668412 17.4451 0.71806 16.1631 1.07022C14.9209 1.41147 13.5989 2.08088 12.5748 3.14121C12.0565 3.04904 11.5306 3.00173 11.0033 3.00001V3L10.9986 3C10.4446 3.00081 9.89201 3.04746 9.34639 3.13932C8.32275 2.0789 7.0009 1.40947 5.75881 1.06823C4.47692 0.716057 3.09921 0.666415 2.11493 1.07712C1.58496 1.29826 1.31454 1.75143 1.17741 2.11074C1.0378 2.47652 0.978264 2.88868 0.954529 3.27751C0.906632 4.06216 0.992551 4.9979 1.11354 5.85696C1.23623 6.72816 1.40305 7.57437 1.53805 8.19905C1.60578 8.51244 1.66602 8.77246 1.70953 8.95496L1.71082 8.96036C1.25591 10.0232 1.00002 11.1944 1.00002 12.444C1.00002 17.7387 5.68473 21 11 21C16.3258 21 21 17.6202 21 12.444ZM3.06071 2.78946C3.06228 2.78639 3.06313 2.78502 3.06317 2.78511C3.0632 2.78519 3.06242 2.78673 3.06071 2.78946ZM18.8589 2.7871C18.8589 2.78702 18.8598 2.78838 18.8613 2.79146L18.8594 2.78825L18.8589 2.7871ZM8.00002 13C8.00002 12.4477 7.5523 12 7.00002 12C6.44773 12 6.00002 12.4477 6.00002 13V13.5C6.00002 14.0523 6.44773 14.5 7.00002 14.5C7.5523 14.5 8.00002 14.0523 8.00002 13.5V13ZM15 12C15.5523 12 16 12.4477 16 13V13.5C16 14.0523 15.5523 14.5 15 14.5C14.4477 14.5 14 14.0523 14 13.5V13C14 12.4477 14.4477 12 15 12ZM10.25 14.25C9.84556 14.25 9.48092 14.4936 9.32614 14.8673C9.17136 15.241 9.25691 15.6711 9.54291 15.9571L10.2929 16.7071C10.6834 17.0976 11.3166 17.0976 11.7071 16.7071L12.4571 15.9571C12.7431 15.6711 12.8287 15.241 12.6739 14.8673C12.5191 14.4936 12.1545 14.25 11.75 14.25H10.25Z" fill="#2A333C"/>
</svg>
