<svg width="21" height="21" viewBox="0 0 21 21" fill="none" xmlns="http://www.w3.org/2000/svg">
<path d="M1.83146 12.2139C1.54241 12.2139 1.27595 12.1489 1.03206 12.0191C0.797212 11.8805 0.607525 11.6987 0.463002 11.4736C0.327511 11.2398 0.259766 10.9844 0.259766 10.7074C0.259766 10.4303 0.327511 10.1792 0.463002 9.95413C0.607525 9.72902 0.797212 9.55153 1.03206 9.42166C1.27595 9.28313 1.54241 9.21387 1.83146 9.21387C2.1205 9.21387 2.38245 9.28313 2.6173 9.42166C2.85215 9.55153 3.03732 9.72902 3.17281 9.95413C3.31734 10.1792 3.3896 10.4303 3.3896 10.7074C3.3896 10.9844 3.31734 11.2398 3.17281 11.4736C3.03732 11.6987 2.85215 11.8805 2.6173 12.0191C2.38245 12.1489 2.1205 12.2139 1.83146 12.2139Z" fill="#2A333C"/>
<path d="M7.45485 12.2139C7.1658 12.2139 6.89933 12.1489 6.65545 12.0191C6.4206 11.8805 6.23091 11.6987 6.08639 11.4736C5.9509 11.2398 5.88315 10.9844 5.88315 10.7074C5.88315 10.4303 5.9509 10.1792 6.08639 9.95413C6.23091 9.72902 6.4206 9.55153 6.65545 9.42166C6.89933 9.28313 7.1658 9.21387 7.45485 9.21387C7.74389 9.21387 8.00584 9.28313 8.24069 9.42166C8.47554 9.55153 8.66071 9.72902 8.7962 9.95413C8.94073 10.1792 9.01299 10.4303 9.01299 10.7074C9.01299 10.9844 8.94073 11.2398 8.7962 11.4736C8.66071 11.6987 8.47554 11.8805 8.24069 12.0191C8.00584 12.1489 7.74389 12.2139 7.45485 12.2139Z" fill="#2A333C"/>
<path d="M13.0782 12.2139C12.7892 12.2139 12.5227 12.1489 12.2788 12.0191C12.044 11.8805 11.8543 11.6987 11.7098 11.4736C11.5743 11.2398 11.5065 10.9844 11.5065 10.7074C11.5065 10.4303 11.5743 10.1792 11.7098 9.95413C11.8543 9.72902 12.044 9.55153 12.2788 9.42166C12.5227 9.28313 12.7892 9.21387 13.0782 9.21387C13.3673 9.21387 13.6292 9.28313 13.8641 9.42166C14.0989 9.55153 14.2841 9.72902 14.4196 9.95413C14.5641 10.1792 14.6364 10.4303 14.6364 10.7074C14.6364 10.9844 14.5641 11.2398 14.4196 11.4736C14.2841 11.6987 14.0989 11.8805 13.8641 12.0191C13.6292 12.1489 13.3673 12.2139 13.0782 12.2139Z" fill="#2A333C"/>
<path d="M18.7016 12.2139C18.4126 12.2139 18.1461 12.1489 17.9022 12.0191C17.6674 11.8805 17.4777 11.6987 17.3332 11.4736C17.1977 11.2398 17.1299 10.9844 17.1299 10.7074C17.1299 10.4303 17.1977 10.1792 17.3332 9.95413C17.4777 9.72902 17.6674 9.55153 17.9022 9.42166C18.1461 9.28313 18.4126 9.21387 18.7016 9.21387C18.9907 9.21387 19.2526 9.28313 19.4875 9.42166C19.7223 9.55153 19.9075 9.72902 20.043 9.95413C20.1875 10.1792 20.2598 10.4303 20.2598 10.7074C20.2598 10.9844 20.1875 11.2398 20.043 11.4736C19.9075 11.6987 19.7223 11.8805 19.4875 12.0191C19.2526 12.1489 18.9907 12.2139 18.7016 12.2139Z" fill="#2A333C"/>
</svg>
