<svg width="29" height="28" viewBox="0 0 29 28" fill="none" xmlns="http://www.w3.org/2000/svg">
<path d="M23.25 0C24.6962 0 25.9327 0.513455 26.9596 1.54036C27.9865 2.56727 28.5 3.80382 28.5 5.25V22.75C28.5 24.1962 27.9865 25.4327 26.9596 26.4596C25.9327 27.4865 24.6962 28 23.25 28H19.8229V17.1536H23.4505L23.9974 12.9245H19.8229V10.2266C19.8229 9.54601 19.9657 9.03559 20.2513 8.69531C20.5369 8.35503 21.0929 8.1849 21.9193 8.1849L24.1432 8.16667V4.39323C23.3776 4.28385 22.296 4.22917 20.8984 4.22917C19.2457 4.22917 17.924 4.71528 16.9336 5.6875C15.9431 6.65972 15.4479 8.03299 15.4479 9.80729V12.9245H11.8021V17.1536H15.4479V28H5.75C4.30382 28 3.06727 27.4865 2.04036 26.4596C1.01345 25.4327 0.5 24.1962 0.5 22.75V5.25C0.5 3.80382 1.01345 2.56727 2.04036 1.54036C3.06727 0.513455 4.30382 0 5.75 0H23.25Z" fill="#1877F2"/>
</svg>
