<svg width="29" height="28" viewBox="0 0 29 28" fill="none" xmlns="http://www.w3.org/2000/svg">
<path d="M28.1692 14.317C28.1692 13.1654 28.0765 12.3251 27.8758 11.4536H14.8263V16.6513H22.4861C22.3317 17.9429 21.4978 19.8882 19.6446 21.1953L19.6186 21.3693L23.7446 24.5903L24.0305 24.619C26.6558 22.1758 28.1692 18.5809 28.1692 14.317Z" fill="#4285F4"/>
<path d="M14.8263 28.0116C18.579 28.0116 21.7294 26.7666 24.0305 24.6191L19.6446 21.1954C18.4709 22.0202 16.8957 22.596 14.8263 22.596C11.1509 22.596 8.03139 20.1528 6.91938 16.7759L6.75638 16.7898L2.4661 20.1357L2.41 20.2928C4.69556 24.868 9.3903 28.0116 14.8263 28.0116Z" fill="#34A853"/>
<path d="M6.91938 16.7757C6.62596 15.9042 6.45615 14.9704 6.45615 14.0056C6.45615 13.0407 6.62596 12.107 6.90394 11.2356L6.89617 11.05L2.55212 7.65039L2.40999 7.71852C1.468 9.6171 0.927483 11.7491 0.927483 14.0056C0.927483 16.2621 1.468 18.394 2.40999 20.2926L6.91938 16.7757Z" fill="#FBBC05"/>
<path d="M14.8263 5.41553C17.4362 5.41553 19.1967 6.55155 20.2005 7.50089L24.1231 3.6415C21.714 1.38502 18.579 0 14.8263 0C9.3903 0 4.69556 3.14349 2.41 7.71868L6.90394 11.2357C8.0314 7.85879 11.1509 5.41553 14.8263 5.41553Z" fill="#EB4335"/>
</svg>
