<svg width="24" height="24" viewBox="0 0 24 24" fill="none" xmlns="http://www.w3.org/2000/svg">
<g clip-path="url(#clip0_271_44)">
<path d="M19 14V18H17V14H19ZM7 14V18H6C5.45 18 5 17.55 5 17V14H7ZM12 1C7.03 1 3 5.03 3 10V17C3 18.66 4.34 20 6 20H8C8.55228 20 9 19.5523 9 19V13C9 12.4477 8.55228 12 8 12H5V10C5 6.13 8.13 3 12 3C15.87 3 19 6.13 19 10V12H16C15.4477 12 15 12.4477 15 13V19C15 19.5523 15.4477 20 16 20H19V21H13C12.4477 21 12 21.4477 12 22C12 22.5523 12.4477 23 13 23H18C19.66 23 21 21.66 21 20V10C21 5.03 16.97 1 12 1Z" fill="#2A333C"/>
</g>
<defs>
<clipPath id="clip0_271_44">
<rect width="24" height="24" fill="white"/>
</clipPath>
</defs>
</svg>
