<svg width="29" height="28" viewBox="0 0 29 28" fill="none" xmlns="http://www.w3.org/2000/svg">
<path d="M21.9375 0H7.0625C3.43813 0 0.5 2.93813 0.5 6.5625V21.4375C0.5 25.0619 3.43813 28 7.0625 28H21.9375C25.5619 28 28.5 25.0619 28.5 21.4375V6.5625C28.5 2.93813 25.5619 0 21.9375 0Z" fill="url(#paint0_radial_3006_5843)"/>
<path d="M21.9375 0H7.0625C3.43813 0 0.5 2.93813 0.5 6.5625V21.4375C0.5 25.0619 3.43813 28 7.0625 28H21.9375C25.5619 28 28.5 25.0619 28.5 21.4375V6.5625C28.5 2.93813 25.5619 0 21.9375 0Z" fill="url(#paint1_radial_3006_5843)"/>
<path d="M14.501 3.0625C11.5306 3.0625 11.1577 3.07552 9.99113 3.12856C8.82672 3.18194 8.03189 3.36623 7.33648 3.63672C6.61702 3.91606 6.00681 4.2898 5.39891 4.89792C4.79045 5.50594 4.41672 6.11614 4.1365 6.83528C3.86525 7.53091 3.68073 8.32606 3.62834 9.48992C3.57617 10.6566 3.5625 11.0296 3.5625 14.0001C3.5625 16.9706 3.57563 17.3423 3.62856 18.5089C3.68216 19.6733 3.86645 20.4681 4.13672 21.1635C4.41628 21.883 4.79002 22.4932 5.39814 23.1011C6.00594 23.7095 6.61614 24.0842 7.33506 24.3635C8.03102 24.634 8.82595 24.8183 9.99014 24.8717C11.1568 24.9247 11.5294 24.9377 14.4997 24.9377C17.4704 24.9377 17.8421 24.9247 19.0087 24.8717C20.1731 24.8183 20.9688 24.634 21.6647 24.3635C22.3839 24.0842 22.9932 23.7095 23.6009 23.1011C24.2093 22.4932 24.583 21.883 24.8633 21.1638C25.1321 20.4681 25.3167 19.6731 25.3714 18.5091C25.4238 17.3425 25.4375 16.9706 25.4375 14.0001C25.4375 11.0296 25.4238 10.6568 25.3714 9.49014C25.3167 8.32573 25.1321 7.53102 24.8633 6.83561C24.583 6.11614 24.2093 5.50594 23.6009 4.89792C22.9925 4.28958 22.3841 3.91584 21.6641 3.63683C20.9668 3.36623 20.1715 3.18183 19.0071 3.12856C17.8404 3.07552 17.469 3.0625 14.4976 3.0625H14.501ZM13.5198 5.03355C13.811 5.03311 14.136 5.03355 14.501 5.03355C17.4214 5.03355 17.7675 5.04405 18.9207 5.09644C19.9871 5.14522 20.5659 5.32339 20.9515 5.47312C21.4619 5.67131 21.8258 5.90833 22.2084 6.29125C22.5912 6.67406 22.8281 7.03861 23.0269 7.54906C23.1766 7.93406 23.355 8.51287 23.4036 9.57928C23.456 10.7323 23.4673 11.0786 23.4673 13.9976C23.4673 16.9166 23.456 17.263 23.4036 18.4159C23.3548 19.4823 23.1766 20.0611 23.0269 20.4462C22.8287 20.9567 22.5912 21.3201 22.2084 21.7027C21.8256 22.0855 21.4622 22.3225 20.9515 22.5208C20.5664 22.6711 19.9871 22.8489 18.9207 22.8977C17.7677 22.95 17.4214 22.9614 14.501 22.9614C11.5805 22.9614 11.2343 22.95 10.0814 22.8977C9.01495 22.8484 8.43614 22.6703 8.05027 22.5205C7.53992 22.3222 7.17527 22.0853 6.79245 21.7025C6.40964 21.3197 6.17273 20.956 5.974 20.4454C5.82427 20.0602 5.64587 19.4814 5.59731 18.415C5.54492 17.262 5.53442 16.9157 5.53442 13.9949C5.53442 11.0741 5.54492 10.7296 5.59731 9.57655C5.64609 8.51014 5.82427 7.93133 5.974 7.54578C6.1723 7.03533 6.40964 6.67078 6.79256 6.28797C7.17538 5.90516 7.53992 5.66814 8.05037 5.46952C8.43592 5.31912 9.01495 5.14139 10.0814 5.09239C11.0903 5.04678 11.4814 5.03311 13.5198 5.03081V5.03355ZM20.3394 6.84961C19.6148 6.84961 19.0269 7.43695 19.0269 8.16167C19.0269 8.88628 19.6148 9.47417 20.3394 9.47417C21.064 9.47417 21.6519 8.88628 21.6519 8.16167C21.6519 7.43706 21.064 6.84917 20.3394 6.84917V6.84961ZM14.501 8.38316C11.3991 8.38316 8.88414 10.8981 8.88414 14.0001C8.88414 17.1021 11.3991 19.6159 14.501 19.6159C17.603 19.6159 20.1171 17.1021 20.1171 14.0001C20.1171 10.8982 17.6028 8.38316 14.5008 8.38316H14.501ZM14.501 10.3542C16.5145 10.3542 18.1469 11.9864 18.1469 14.0001C18.1469 16.0136 16.5145 17.646 14.501 17.646C12.4874 17.646 10.8552 16.0136 10.8552 14.0001C10.8552 11.9864 12.4874 10.3542 14.501 10.3542Z" fill="white"/>
<defs>
<radialGradient id="paint0_radial_3006_5843" cx="0" cy="0" r="1" gradientUnits="userSpaceOnUse" gradientTransform="translate(7.9375 30.1565) rotate(-90) scale(27.7501 25.8098)">
<stop stop-color="#FFDD55"/>
<stop offset="0.1" stop-color="#FFDD55"/>
<stop offset="0.5" stop-color="#FF543E"/>
<stop offset="1" stop-color="#C837AB"/>
</radialGradient>
<radialGradient id="paint1_radial_3006_5843" cx="0" cy="0" r="1" gradientUnits="userSpaceOnUse" gradientTransform="translate(-4.19011 2.01698) rotate(78.681) scale(12.4044 51.1315)">
<stop stop-color="#3771C8"/>
<stop offset="0.128" stop-color="#3771C8"/>
<stop offset="1" stop-color="#6600FF" stop-opacity="0"/>
</radialGradient>
</defs>
</svg>
