<svg width="32" height="32" viewBox="0 0 32 32" fill="none" xmlns="http://www.w3.org/2000/svg">
<path d="M28.1502 22.4496C27.5664 21.8721 26.8181 21.4882 26.0075 21.3503C25.1969 21.2124 24.3633 21.3272 23.6205 21.6791L22.0885 20.1645C25.2274 16.7866 27.5954 12.7708 29.0295 8.3932C29.3016 7.63692 29.3526 6.81907 29.1764 6.03501C29.0003 5.25095 28.6042 4.53299 28.0345 3.96483C27.4648 3.39666 26.7448 3.00172 25.9586 2.82604C25.1724 2.65035 24.3523 2.70117 23.5939 2.97257C19.2043 4.40275 15.1773 6.7642 11.7902 9.8945L10.2714 8.36663C10.5869 7.70644 10.7142 6.97241 10.6394 6.2449C10.5645 5.51738 10.2904 4.82443 9.84697 4.24191C9.40357 3.65939 8.80801 3.20976 8.12548 2.94224C7.44295 2.67473 6.69977 2.59964 5.97731 2.7252C5.25485 2.85076 4.58095 3.17213 4.02941 3.65412C3.47786 4.13611 3.06992 4.76015 2.85026 5.4579C2.63059 6.15566 2.60767 6.90024 2.784 7.61012C2.96033 8.32 3.32911 8.96781 3.84997 9.48264C4.59878 10.2303 5.61469 10.6509 6.67434 10.6518C7.26532 10.6463 7.84773 10.5102 8.37962 10.2532L9.9117 11.7678C6.77277 15.1457 4.40481 19.1615 2.97068 23.5391C2.7209 24.2943 2.68577 25.1037 2.8692 25.8776C3.05262 26.6515 3.44744 27.3596 4.00984 27.9234C4.39068 28.3283 4.84805 28.6542 5.35562 28.8822C5.8632 29.1102 6.41097 29.2359 6.96743 29.252C7.45555 29.2474 7.94033 29.1713 8.40626 29.0261C12.7959 27.596 16.8228 25.2345 20.21 22.1042L21.7288 23.6321C21.4132 24.2923 21.2859 25.0263 21.3608 25.7538C21.4357 26.4813 21.7098 27.1743 22.1532 27.7568C22.5966 28.3393 23.1922 28.7889 23.8747 29.0565C24.5572 29.324 25.3004 29.3991 26.0229 29.2735C26.7453 29.1479 27.4192 28.8266 27.9708 28.3446C28.5223 27.8626 28.9302 27.2386 29.1499 26.5408C29.3696 25.843 29.3925 25.0985 29.2162 24.3886C29.0398 23.6787 28.6711 23.0309 28.1502 22.5161V22.4496ZM7.62023 7.59605C7.37113 7.84622 7.03258 7.98747 6.67905 7.98872C6.32552 7.98996 5.98597 7.8511 5.7351 7.60269C5.48423 7.35427 5.3426 7.01665 5.34135 6.66409C5.3401 6.31153 5.47934 5.97292 5.72844 5.72274C5.97754 5.47256 6.31609 5.33131 6.66963 5.33007C7.02316 5.32882 7.3627 5.46768 7.61357 5.7161C7.86444 5.96451 8.00608 6.30214 8.00733 6.6547C8.00858 7.00725 7.86933 7.34587 7.62023 7.59605ZM24.4066 5.51017C24.6088 5.44375 24.8199 5.40792 25.0327 5.40388C25.2379 5.40221 25.4413 5.44129 25.6312 5.51885C25.821 5.5964 25.9935 5.71088 26.1385 5.8556C26.3556 6.08044 26.5036 6.36258 26.565 6.66866C26.6264 6.97473 26.5986 7.29194 26.4849 7.58276C25.7811 9.74011 24.8288 11.8088 23.6472 13.7474L18.2249 8.34005C20.1689 7.16166 22.2433 6.21203 24.4066 5.51017ZM7.59359 26.4221C7.30306 26.5381 6.98479 26.5665 6.67824 26.5038C6.37168 26.441 6.09032 26.29 5.86904 26.0693C5.64776 25.8486 5.49629 25.5681 5.4334 25.2623C5.37052 24.9566 5.39899 24.6392 5.51528 24.3495C6.21908 22.1922 7.17133 20.1235 8.35297 18.1849L13.7752 23.5922C11.8313 24.7706 9.75689 25.7202 7.59359 26.4221ZM16.0001 22.0643L9.88506 15.9661C10.4788 15.1626 11.1147 14.3909 11.7902 13.6544L18.3315 20.1778C17.5883 20.8472 16.8101 21.477 16.0001 22.0643ZM20.1967 18.2912L13.6686 11.7678C14.4115 11.0938 15.1898 10.4596 16.0001 9.86793L22.1284 15.9794C21.5304 16.7833 20.89 17.555 20.21 18.2912H20.1967ZM26.2584 26.2627C26.1351 26.3865 25.9885 26.485 25.827 26.5524C25.6655 26.6197 25.4923 26.6547 25.3172 26.6553C25.1422 26.656 24.9687 26.6222 24.8067 26.556C24.6448 26.4897 24.4975 26.3923 24.3733 26.2693C24.2491 26.1463 24.1503 26.0001 24.0828 25.8391C24.0152 25.678 23.9801 25.5053 23.9795 25.3307C23.9789 25.1561 24.0128 24.9832 24.0792 24.8216C24.1456 24.6601 24.2433 24.5132 24.3666 24.3894C24.6162 24.1419 24.9539 24.003 25.3058 24.003C25.6578 24.003 25.9955 24.1419 26.2451 24.3894C26.481 24.6324 26.6152 24.956 26.6201 25.2942C26.6251 25.6324 26.5005 25.9598 26.2717 26.2095L26.2584 26.2627Z" fill="#3AA7E0"/>
</svg>
