<svg width="24" height="24" viewBox="0 0 24 24" fill="none" xmlns="http://www.w3.org/2000/svg">
<path d="M21.92 11.62C21.8724 11.4973 21.8011 11.3851 21.71 11.29L17.71 7.29C17.6168 7.19676 17.5061 7.1228 17.3843 7.07234C17.2624 7.02188 17.1319 6.99591 17 6.99591C16.7337 6.99591 16.4783 7.1017 16.29 7.29C16.1017 7.47831 15.9959 7.7337 15.9959 8C15.9959 8.2663 16.1017 8.5217 16.29 8.71L18.59 11H5.41002L7.71002 8.71C7.80326 8.61676 7.87722 8.50607 7.92768 8.38425C7.97814 8.26243 8.00411 8.13186 8.00411 8C8.00411 7.86814 7.97814 7.73758 7.92768 7.61575C7.87722 7.49393 7.80326 7.38324 7.71002 7.29C7.61678 7.19676 7.50609 7.1228 7.38427 7.07234C7.26245 7.02188 7.13188 6.99591 7.00002 6.99591C6.86816 6.99591 6.73759 7.02188 6.61577 7.07234C6.49395 7.1228 6.38326 7.19676 6.29002 7.29L2.29002 11.29C2.19898 11.3851 2.12761 11.4973 2.08002 11.62C1.98 11.8635 1.98 12.1365 2.08002 12.38C2.12761 12.5028 2.19898 12.6149 2.29002 12.71L6.29002 16.71C6.38298 16.8037 6.49358 16.8781 6.61544 16.9289C6.7373 16.9797 6.86801 17.0058 7.00002 17.0058C7.13203 17.0058 7.26274 16.9797 7.3846 16.9289C7.50645 16.8781 7.61706 16.8037 7.71002 16.71C7.80375 16.617 7.87814 16.5064 7.92891 16.3846C7.97968 16.2627 8.00582 16.132 8.00582 16C8.00582 15.868 7.97968 15.7373 7.92891 15.6154C7.87814 15.4936 7.80375 15.383 7.71002 15.29L5.41002 13H18.59L16.29 15.29C16.1963 15.383 16.1219 15.4936 16.0711 15.6154C16.0204 15.7373 15.9942 15.868 15.9942 16C15.9942 16.132 16.0204 16.2627 16.0711 16.3846C16.1219 16.5064 16.1963 16.617 16.29 16.71C16.383 16.8037 16.4936 16.8781 16.6154 16.9289C16.7373 16.9797 16.868 17.0058 17 17.0058C17.132 17.0058 17.2627 16.9797 17.3846 16.9289C17.5065 16.8781 17.6171 16.8037 17.71 16.71L21.71 12.71C21.8011 12.6149 21.8724 12.5028 21.92 12.38C22.02 12.1365 22.02 11.8635 21.92 11.62Z" fill="#2A333C"/>
</svg>
