<svg width="24" height="24" viewBox="0 0 24 24" fill="none" xmlns="http://www.w3.org/2000/svg">
<g id="chat_bubble_outline" clip-path="url(#clip0_1178_64471)">
<path id="Vector" d="M20 2H4C2.9 2 2 2.9 2 4V20.9031C2 21.3319 2.50431 21.5618 2.82796 21.2805L6.46205 18.1226C6.55303 18.0435 6.66949 18 6.79002 18H20C21.1 18 22 17.1 22 16V4C22 2.9 21.1 2 20 2ZM19 16H6.20711C6.0745 16 5.94732 16.0527 5.85355 16.1464L4 18V5C4 4.45 4.45 4 5 4H19C19.55 4 20 4.45 20 5V15C20 15.55 19.55 16 19 16Z" fill="#6D787B"/>
</g>
<defs>
<clipPath id="clip0_1178_64471">
<rect width="24" height="24" fill="white"/>
</clipPath>
</defs>
</svg>
