<svg width="129" height="128" viewBox="0 0 129 128" fill="none" xmlns="http://www.w3.org/2000/svg">
<circle cx="64.5" cy="64" r="64" fill="#F8F8F8"/>
<path d="M88 65C80.811 65 75 70.811 75 78C75 85.189 80.811 91 88 91C95.189 91 101 85.189 101 78C101 70.811 95.189 65 88 65ZM93.59 83.59C93.083 84.097 92.264 84.097 91.757 83.59L88 79.833L84.243 83.59C83.736 84.097 82.917 84.097 82.41 83.59C81.903 83.083 81.903 82.264 82.41 81.757L86.167 78L82.41 74.243C81.903 73.736 81.903 72.917 82.41 72.41C82.917 71.903 83.736 71.903 84.243 72.41L88 76.167L91.757 72.41C92.264 71.903 93.083 71.903 93.59 72.41C94.097 72.917 94.097 73.736 93.59 74.243L89.833 78L93.59 81.757C94.084 82.251 94.084 83.083 93.59 83.59Z" fill="#FF6060"/>
<path fill-rule="evenodd" clip-rule="evenodd" d="M38.2 37H87.8C91.241 37 94 39.759 94 43.2V66.4644C92.205 65.5289 90.1643 65 88 65C87.9332 65 87.8665 65.0005 87.8 65.0015V65V61.8H38.2V80.4H75.2211C75.6597 82.7503 76.7308 84.8781 78.2509 86.6H38.2C34.759 86.6 32 83.841 32 80.4L32.031 43.2C32.031 39.759 34.759 37 38.2 37ZM38.2 49.4H87.8V43.2H38.2V49.4Z" fill="#CACACA"/>
</svg>
