<svg width="20" height="20" viewBox="0 0 20 20" fill="none" xmlns="http://www.w3.org/2000/svg">
<path d="M18.3332 6.03367C18.3338 5.924 18.3128 5.81528 18.2713 5.71375C18.2299 5.61222 18.1688 5.51987 18.0915 5.44201L14.5582 1.90867C14.4803 1.83144 14.388 1.77033 14.2864 1.72886C14.1849 1.68739 14.0762 1.66637 13.9665 1.66701C13.8568 1.66637 13.7481 1.68739 13.6466 1.72886C13.5451 1.77033 13.4527 1.83144 13.3749 1.90867L11.0165 4.26701L1.90818 13.3753C1.83095 13.4532 1.76985 13.5456 1.72838 13.6471C1.6869 13.7486 1.66588 13.8573 1.66652 13.967V17.5003C1.66652 17.7214 1.75432 17.9333 1.9106 18.0896C2.06688 18.2459 2.27884 18.3337 2.49985 18.3337H6.03318C6.14979 18.34 6.26643 18.3218 6.37553 18.2801C6.48464 18.2385 6.58378 18.1744 6.66652 18.092L15.7249 8.98367L18.0915 6.66701C18.1676 6.58624 18.2296 6.49328 18.2749 6.39201C18.2829 6.32558 18.2829 6.25843 18.2749 6.19201C18.2788 6.15321 18.2788 6.11413 18.2749 6.07534L18.3332 6.03367ZM5.69152 16.667H3.33318V14.3087L11.6082 6.03367L13.9665 8.39201L5.69152 16.667ZM15.1415 7.21701L12.7832 4.85867L13.9665 3.68367L16.3165 6.03367L15.1415 7.21701Z" fill="#1797DA"/>
</svg>
