<svg width="18" height="18" viewBox="0 0 18 18" fill="none" xmlns="http://www.w3.org/2000/svg">
<path d="M13.9999 10.6667C13.5075 10.67 13.022 10.7823 12.5782 10.9955C12.1344 11.2088 11.7434 11.5177 11.4332 11.9001L7.18321 9.94172C7.38304 9.32984 7.38304 8.67026 7.18321 8.05839L11.4332 6.10005C11.9346 6.70503 12.6335 7.11345 13.4067 7.25325C14.1798 7.39305 14.9776 7.25524 15.659 6.86414C16.3405 6.47304 16.8619 5.85379 17.1312 5.11567C17.4005 4.37756 17.4004 3.56804 17.131 2.82998C16.8615 2.09191 16.34 1.47276 15.6585 1.08178C14.977 0.690799 14.1792 0.553133 13.4061 0.693074C12.6329 0.833016 11.9341 1.24157 11.4328 1.84663C10.9316 2.4517 10.6602 3.21437 10.6665 4.00005C10.6691 4.19858 10.6886 4.39653 10.7249 4.59172L6.32488 6.61672C5.85578 6.15804 5.26175 5.84798 4.61722 5.72541C3.97269 5.60284 3.30631 5.67319 2.70159 5.92766C2.09687 6.18214 1.58068 6.6094 1.21771 7.15594C0.854746 7.70247 0.661133 8.34397 0.661133 9.00005C0.661133 9.65614 0.854746 10.2976 1.21771 10.8442C1.58068 11.3907 2.09687 11.818 2.70159 12.0724C3.30631 12.3269 3.97269 12.3973 4.61722 12.2747C5.26175 12.1521 5.85578 11.8421 6.32488 11.3834L10.7249 13.4084C10.6886 13.6036 10.6691 13.8015 10.6665 14.0001C10.6665 14.6593 10.862 15.3038 11.2283 15.852C11.5946 16.4001 12.1152 16.8274 12.7243 17.0797C13.3334 17.3319 14.0036 17.398 14.6502 17.2693C15.2968 17.1407 15.8907 16.8233 16.3569 16.3571C16.8231 15.8909 17.1405 15.297 17.2692 14.6504C17.3978 14.0038 17.3318 13.3335 17.0795 12.7244C16.8272 12.1154 16.3999 11.5948 15.8518 11.2285C15.3036 10.8622 14.6592 10.6667 13.9999 10.6667ZM13.9999 2.33339C14.3295 2.33339 14.6518 2.43114 14.9258 2.61427C15.1999 2.79741 15.4135 3.05771 15.5397 3.36225C15.6658 3.66679 15.6988 4.0019 15.6345 4.32521C15.5702 4.64851 15.4115 4.94548 15.1784 5.17857C14.9453 5.41165 14.6483 5.57039 14.325 5.6347C14.0017 5.69901 13.6666 5.666 13.3621 5.53985C13.0575 5.41371 12.7972 5.20009 12.6141 4.926C12.431 4.65192 12.3332 4.32969 12.3332 4.00005C12.3332 3.55803 12.5088 3.1341 12.8214 2.82154C13.1339 2.50898 13.5579 2.33339 13.9999 2.33339ZM3.99988 10.6667C3.67025 10.6667 3.34801 10.569 3.07393 10.3858C2.79985 10.2027 2.58623 9.9424 2.46008 9.63786C2.33394 9.33332 2.30093 8.99821 2.36524 8.6749C2.42955 8.3516 2.58828 8.05463 2.82137 7.82154C3.05446 7.58846 3.35143 7.42972 3.67473 7.36541C3.99803 7.3011 4.33314 7.33411 4.63769 7.46026C4.94223 7.5864 5.20253 7.80002 5.38566 8.0741C5.5688 8.34819 5.66655 8.67042 5.66655 9.00005C5.66655 9.44208 5.49095 9.866 5.17839 10.1786C4.86583 10.4911 4.44191 10.6667 3.99988 10.6667ZM13.9999 15.6667C13.6702 15.6667 13.348 15.569 13.0739 15.3858C12.7998 15.2027 12.5862 14.9424 12.4601 14.6379C12.3339 14.3333 12.3009 13.9982 12.3652 13.6749C12.4295 13.3516 12.5883 13.0546 12.8214 12.8215C13.0545 12.5885 13.3514 12.4297 13.6747 12.3654C13.998 12.3011 14.3331 12.3341 14.6377 12.4603C14.9422 12.5864 15.2025 12.8 15.3857 13.0741C15.5688 13.3482 15.6665 13.6704 15.6665 14.0001C15.6665 14.4421 15.491 14.866 15.1784 15.1786C14.8658 15.4911 14.4419 15.6667 13.9999 15.6667Z" fill="#2A333C"/>
</svg>
