<svg width="74" height="74" viewBox="0 0 74 74" fill="none" xmlns="http://www.w3.org/2000/svg">
<path d="M56.6667 6.66667H60C63.6667 6.66667 66.6667 9.66667 66.6667 13.3333V47.6641H60V23.3333H6.66667V63.3333C6.66667 65.1667 8.16667 66.6667 10 66.6667H56.6667C58.5 66.6667 60 65.1667 60 63.3333H66.6667V66.6667C66.6667 70.3333 63.6667 73.3333 60 73.3333H6.66667C3 73.3333 0 70.3333 0 66.6667V13.3333C0 9.66667 3 6.66667 6.66667 6.66667H10V3.33333C10 1.5 11.5 0 13.3333 0C15.1667 0 16.6667 1.5 16.6667 3.33333V6.66667H50V3.33333C50 1.5 51.5 0 53.3333 0C55.1667 0 56.6667 1.5 56.6667 3.33333V6.66667Z" fill="#CACACA"/>
<path d="M62.334 42.3359C56.251 42.3359 51.334 47.2529 51.334 53.3359C51.334 59.4189 56.251 64.3359 62.334 64.3359C68.417 64.3359 73.334 59.4189 73.334 53.3359C73.334 47.2529 68.417 42.3359 62.334 42.3359ZM67.064 58.0659C66.635 58.4949 65.942 58.4949 65.513 58.0659L62.334 54.8869L59.155 58.0659C58.726 58.4949 58.033 58.4949 57.604 58.0659C57.175 57.6369 57.175 56.9439 57.604 56.5149L60.783 53.3359L57.604 50.1569C57.175 49.7279 57.175 49.0349 57.604 48.6059C58.033 48.1769 58.726 48.1769 59.155 48.6059L62.334 51.7849L65.513 48.6059C65.942 48.1769 66.635 48.1769 67.064 48.6059C67.493 49.0349 67.493 49.7279 67.064 50.1569L63.885 53.3359L67.064 56.5149C67.482 56.9329 67.482 57.6369 67.064 58.0659Z" fill="#CACACA"/>
</svg>
