<svg width="129" height="128" viewBox="0 0 129 128" fill="none" xmlns="http://www.w3.org/2000/svg">
<circle cx="64.5" cy="64" r="64" fill="#EBF8FF"/>
<path fill-rule="evenodd" clip-rule="evenodd" d="M51.3333 73.9997C49.6765 73.9997 48.3333 75.3428 48.3333 76.9997V77.6663C48.3333 79.3232 49.6765 80.6663 51.3333 80.6663H68.6667C70.3235 80.6663 71.6667 79.3232 71.6667 77.6663V76.9997C71.6667 75.3428 70.3235 73.9997 68.6667 73.9997H51.3333ZM51.3333 60.6663C49.6765 60.6663 48.3333 62.0095 48.3333 63.6663V64.333C48.3333 65.9899 49.6765 67.333 51.3333 67.333H78.6667C80.3235 67.333 81.6667 65.9899 81.6667 64.333V63.6663C81.6667 62.0095 80.3235 60.6663 78.6667 60.6663H51.3333ZM51.3333 47.333C49.6765 47.333 48.3333 48.6762 48.3333 50.333V50.9997C48.3333 52.6565 49.6765 53.9997 51.3333 53.9997H78.6667C80.3235 53.9997 81.6667 52.6565 81.6667 50.9997V50.333C81.6667 48.6762 80.3235 47.333 78.6667 47.333H51.3333ZM74.4 33.9997H88.3333C92 33.9997 95 36.9997 95 40.6663V76.5815C93.0487 75.4016 90.7705 74.7079 88.3333 74.6681V43.6663C88.3333 42.0095 86.9902 40.6663 85.3333 40.6663H44.6667C43.0098 40.6663 41.6667 42.0095 41.6667 43.6663V84.333C41.6667 85.9899 43.0098 87.333 44.6667 87.333H74.7942C74.7833 87.5538 74.7778 87.7761 74.7778 87.9996C74.7778 90.1578 75.2906 92.1962 76.2009 93.9997H41.6667C41.2 93.9997 40.7667 93.9663 40.3333 93.8997C39.0333 93.633 37.8667 92.9663 36.9667 92.0663C36.3667 91.433 35.8667 90.733 35.5333 89.933C35.2 89.133 35 88.233 35 87.333V40.6663C35 39.733 35.2 38.8663 35.5333 38.0997C35.8667 37.2997 36.3667 36.5663 36.9667 35.9663C37.8667 35.0663 39.0333 34.3997 40.3333 34.133C40.7667 34.033 41.2 33.9997 41.6667 33.9997H55.6C57 30.133 60.6667 27.333 65 27.333C69.3333 27.333 73 30.133 74.4 33.9997ZM67.5 35.6663C67.5 34.2997 66.3667 33.1663 65 33.1663C63.6333 33.1663 62.5 34.2997 62.5 35.6663C62.5 37.033 63.6333 38.1663 65 38.1663C66.3667 38.1663 67.5 37.033 67.5 35.6663Z" fill="#96D8FB"/>
<path d="M86.3333 72.8887C79 72.8887 73 78.8887 73 86.222C73 93.5553 79 99.5553 86.3333 99.5553C93.6667 99.5553 99.6667 93.5553 99.6667 86.222C99.6667 78.8887 93.6667 72.8887 86.3333 72.8887ZM91.9333 83.9553L85.5333 90.3553C85 90.8887 84.2 90.8887 83.6667 90.3553L80.7333 87.422C80.2 86.8887 80.2 86.0887 80.7333 85.5553C81.2667 85.022 82.0667 85.022 82.6 85.5553L84.6 87.5553L90.0667 82.0887C90.6 81.5553 91.4 81.5553 91.9333 82.0887C92.4667 82.622 92.4667 83.422 91.9333 83.9553Z" fill="#11D9B5"/>
</svg>
