<?xml version="1.0" standalone="no"?>
<!DOCTYPE svg PUBLIC "-//W3C//DTD SVG 20010904//EN"
 "http://www.w3.org/TR/2001/REC-SVG-20010904/DTD/svg10.dtd">
<svg version="1.0" xmlns="http://www.w3.org/2000/svg"
 width="512.000000pt" height="512.000000pt" viewBox="0 0 512.000000 512.000000"
 preserveAspectRatio="xMidYMid meet">
<metadata>
Created by potrace 1.14, written by Peter Selinger 2001-2017
</metadata>
<g transform="translate(0.000000,512.000000) scale(0.100000,-0.100000)"
fill="#000000" stroke="none">
<path d="M0 4496 c0 -490 3 -625 12 -629 10 -4 10 -6 1 -6 -10 -1 -13 -394
-13 -1931 l0 -1930 187 0 188 0 212 212 c117 117 214 210 217 207 3 -2 -82
-92 -189 -198 -107 -106 -200 -199 -206 -207 -10 -12 190 -14 1347 -14 l1358
0 -44 45 c-24 24 -41 47 -38 50 3 3 27 -17 53 -44 l48 -51 994 0 993 0 0 2560
0 2560 -2560 0 -2560 0 0 -624z m274 -912 c3 -8 2 -12 -4 -9 -6 3 -10 10 -10
16 0 14 7 11 14 -7z m1363 -70 c-3 -3 -12 -4 -19 -1 -8 3 -5 6 6 6 11 1 17 -2
13 -5z m90 0 c-3 -3 -12 -4 -19 -1 -8 3 -5 6 6 6 11 1 17 -2 13 -5z m73 -4 c0
-5 -2 -10 -4 -10 -3 0 -8 5 -11 10 -3 6 -1 10 4 10 6 0 11 -4 11 -10z m1961
-163 c-10 -9 -11 -8 -5 6 3 10 9 15 12 12 3 -3 0 -11 -7 -18z m-2742 -1 c-15
-13 -49 -25 -49 -17 0 5 8 12 18 14 24 6 36 8 31 3z m-119 -66 c0 -5 -5 -10
-11 -10 -5 0 -7 5 -4 10 3 6 8 10 11 10 2 0 4 -4 4 -10z m2723 -55 c-3 -9 -8
-14 -10 -11 -3 3 -2 9 2 15 9 16 15 13 8 -4z m-249 -245 c-115 -115 -213 -210
-219 -210 -5 0 87 97 205 215 118 118 216 212 219 209 2 -2 -90 -99 -205 -214z
m-2629 200 c-3 -5 -16 -15 -28 -21 -21 -10 -21 -9 2 10 25 23 36 27 26 11z
m3025 -285 c14 -19 14 -19 -2 -6 -10 7 -18 18 -18 24 0 6 1 8 3 6 1 -2 9 -13
17 -24z m-3449 -168 c-10 -9 -11 -8 -5 6 3 10 9 15 12 12 3 -3 0 -11 -7 -18z
m-81 -146 c0 -6 -4 -12 -8 -15 -5 -3 -9 1 -9 9 0 8 4 15 9 15 4 0 8 -4 8 -9z
m353 -236 c-3 -9 -8 -14 -10 -11 -3 3 -2 9 2 15 9 16 15 13 8 -4z m1947 -176
c0 -6 -4 -7 -10 -4 -5 3 -10 11 -10 16 0 6 5 7 10 4 6 -3 10 -11 10 -16z
m-2043 -81 c-3 -7 -5 -2 -5 12 0 14 2 19 5 13 2 -7 2 -19 0 -25z m2070 10 c-3
-8 -6 -5 -6 6 -1 11 2 17 5 13 3 -3 4 -12 1 -19z m-2090 -100 c-3 -7 -5 -2 -5
12 0 14 2 19 5 13 2 -7 2 -19 0 -25z m2131 -3 c-3 -3 -9 2 -12 12 -6 14 -5 15
5 6 7 -7 10 -15 7 -18z m-2151 -117 c-3 -8 -6 -5 -6 6 -1 11 2 17 5 13 3 -3 4
-12 1 -19z m2180 -50 c-3 -7 -5 -2 -5 12 0 14 2 19 5 13 2 -7 2 -19 0 -25z
m-2185 -73 c3 -14 1 -25 -3 -25 -5 0 -9 11 -9 25 0 14 2 25 4 25 2 0 6 -11 8
-25z m2195 -12 c-3 -10 -5 -4 -5 12 0 17 2 24 5 18 2 -7 2 -21 0 -30z m-14
-133 c-3 -12 -8 -19 -11 -16 -5 6 5 36 12 36 2 0 2 -9 -1 -20z m-2161 -65 c2
-19 1 -35 -3 -35 -4 0 -9 18 -11 39 -4 48 8 45 14 -4z m5 -67 c-3 -8 -6 -5 -6
6 -1 11 2 17 5 13 3 -3 4 -12 1 -19z m27 -84 c3 -8 2 -12 -4 -9 -6 3 -10 10
-10 16 0 14 7 11 14 -7z m19 -64 c3 -11 2 -18 -3 -15 -4 3 -10 14 -13 25 -3
11 -2 18 3 15 4 -3 10 -14 13 -25z m53 -125 c1 -8 -2 -13 -7 -9 -5 3 -9 12 -9
21 0 19 13 9 16 -12z m44 -86 c0 -6 -4 -7 -10 -4 -5 3 -10 11 -10 16 0 6 5 7
10 4 6 -3 10 -11 10 -16z m15 -29 c3 -5 1 -10 -4 -10 -6 0 -11 5 -11 10 0 6 2
10 4 10 3 0 8 -4 11 -10z m85 -130 c6 -11 8 -20 6 -20 -3 0 -10 9 -16 20 -6
11 -8 20 -6 20 3 0 10 -9 16 -20z m43 -55 c23 -32 17 -32 -13 0 -13 14 -19 25
-14 25 5 0 17 -12 27 -25z m47 -50 c7 -9 8 -15 2 -15 -5 0 -12 7 -16 15 -3 8
-4 15 -2 15 2 0 9 -7 16 -15z m71 -72 c13 -15 12 -15 -8 -4 -24 12 -29 21 -14
21 5 0 15 -7 22 -17z m44 -33 c3 -5 2 -10 -4 -10 -5 0 -13 5 -16 10 -3 6 -2
10 4 10 5 0 13 -4 16 -10z m1700 -10 c-3 -5 -11 -10 -16 -10 -6 0 -7 5 -4 10
3 6 11 10 16 10 6 0 7 -4 4 -10z m-135 -94 c0 -2 -12 -11 -27 -20 l-28 -17 24
20 c23 21 31 25 31 17z m-65 -45 c-3 -6 -11 -11 -16 -11 -5 0 -4 6 3 14 14 16
24 13 13 -3z m-108 -57 c-3 -3 -12 -4 -19 -1 -8 3 -5 6 6 6 11 1 17 -2 13 -5z
m-47 -14 c-8 -5 -19 -10 -25 -10 -5 0 -3 5 5 10 8 5 20 10 25 10 6 0 3 -5 -5
-10z m-65 -30 c-11 -5 -27 -9 -35 -9 -9 0 -8 4 5 9 11 5 27 9 35 9 9 0 8 -4
-5 -9z m-785 -13 c30 -13 167 -37 243 -43 42 -4 75 -9 73 -12 -8 -8 -96 -8
-96 1 0 4 -12 7 -27 7 -16 0 -64 7 -108 16 -119 24 -125 26 -125 34 0 9 15 7
40 -3z m688 -12 c-9 -10 -141 -35 -213 -40 -38 -4 -76 -8 -82 -10 -7 -3 -13
-1 -13 4 0 5 37 11 83 15 45 4 109 13 142 21 67 15 91 17 83 10z m557 -85 c-3
-5 -12 -10 -18 -10 -7 0 -6 4 3 10 19 12 23 12 15 0z m-45 -30 c-24 -15 -36
-11 -14 4 10 8 21 12 24 10 2 -3 -2 -9 -10 -14z m-1655 -30 c3 -5 2 -10 -4
-10 -5 0 -13 5 -16 10 -3 6 -2 10 4 10 5 0 13 -4 16 -10z m1600 0 c-3 -5 -14
-10 -23 -10 -15 0 -15 2 -2 10 20 13 33 13 25 0z m-101 -54 c-21 -15 -30 -14
-19 3 3 6 14 11 23 11 13 0 13 -2 -4 -14z m-44 -10 c0 -3 -4 -8 -10 -11 -5 -3
-10 -1 -10 4 0 6 5 11 10 11 6 0 10 -2 10 -4z m-1270 -28 c0 -5 -9 -4 -20 2
-11 6 -20 12 -20 14 0 2 9 2 20 -1 11 -3 20 -9 20 -15z m1239 9 c-14 -10 -89
-34 -89 -28 0 8 83 40 89 35 2 -2 2 -5 0 -7z m-1159 -32 c19 -7 28 -14 20 -14
-8 0 -28 6 -45 14 -39 17 -21 18 25 0z m1060 -5 c0 -5 -4 -10 -10 -10 -5 0
-10 5 -10 10 0 6 5 10 10 10 6 0 10 -4 10 -10z m-40 -10 c-8 -5 -19 -10 -25
-10 -5 0 -3 5 5 10 8 5 20 10 25 10 6 0 3 -5 -5 -10z m-45 -9 c-9 -8 -180 -51
-202 -51 -21 1 26 20 48 20 14 0 29 3 32 7 4 3 24 8 44 10 20 2 44 8 52 13 21
13 38 13 26 1z m-848 -17 c-3 -3 -12 -4 -19 -1 -8 3 -5 6 6 6 11 1 17 -2 13
-5z m127 -23 c4 -5 -3 -7 -14 -4 -23 6 -26 13 -6 13 8 0 17 -4 20 -9z m59 -8
c-7 -2 -21 -2 -30 0 -10 3 -4 5 12 5 17 0 24 -2 18 -5z m412 -3 c-3 -5 -16
-10 -28 -9 -20 1 -20 2 3 9 14 4 26 8 28 9 2 1 0 -3 -3 -9z m-368 -6 c-3 -3
-12 -4 -19 -1 -8 3 -5 6 6 6 11 1 17 -2 13 -5z m189 -7 c4 -4 -7 -7 -25 -7
-18 0 -30 4 -27 8 6 10 42 9 52 -1z"/>
</g>
</svg>
