<svg width="140" height="24" viewBox="0 0 140 24" fill="none" xmlns="http://www.w3.org/2000/svg">
<path d="M24 0H0.0020752V5.71608L1.60124 7.03758L1.77034 6.91023C3.63882 5.50104 5.86429 4.75574 8.20875 4.75574C10.7474 4.75574 13.1879 5.65135 15.119 7.28601L13.1566 9.24843C11.7515 8.12735 10.0062 7.51357 8.20875 7.51357C6.41126 7.51357 4.68474 8.12108 3.286 9.22964L1.55113 7.49478L1.32775 7.27766L0.0020752 5.8476V9.34238L1.64717 10.9875C0.741116 12.3111 0.265119 13.8497 0.265119 15.4572C0.265119 17.2547 0.878903 19 1.99999 20.405L0.0375622 22.3674L0.0333892 22.3633L0.0020752 22.3925V23.9979H1.79957L3.76408 22.0334C5.0814 22.9269 6.61376 23.3987 8.20875 23.3987C9.80374 23.3987 11.357 22.9207 12.6806 22.0167L14.6597 23.9979H24V0ZM12.6785 20.1587C11.1044 21.7328 8.79121 22.3403 6.6409 21.7453L6.46763 21.6973L8.31314 19.8518H8.35489C9.42378 19.8372 10.428 19.4134 11.1816 18.6597C12.4864 17.3549 12.7495 15.3633 11.8434 13.7683L4.74111 20.8706L4.65134 20.7808C4.39664 20.5971 4.14612 20.3841 3.92065 20.1566C3.69101 19.9269 3.47598 19.6764 3.28182 19.4092L3.16909 19.2985L3.18996 19.2777C1.49894 16.8163 1.79957 13.5177 3.91856 11.3987C5.48432 9.83298 7.78704 9.22129 9.92692 9.80375L10.1002 9.85177L8.24633 11.7056H8.20458C7.1503 11.7307 6.15865 12.1524 5.41543 12.8956C4.12942 14.1816 3.85385 16.1566 4.72441 17.7411L11.7557 10.7098L11.7745 10.7286L11.8184 10.6848L11.8914 10.7369C12.1733 10.9395 12.4363 11.1628 12.6764 11.4008C15.0918 13.8163 15.0918 17.7453 12.6764 20.1587H12.6785ZM16.3987 22.3403L14.4363 20.3779C15.5449 18.977 16.1524 17.2401 16.1524 15.4551C16.1524 13.858 15.6806 12.3278 14.787 11.0104L16.7683 9.02923L16.7808 9.04384L18.8705 7.15657L17.0125 9.37161L17.1232 9.53862C18.2923 11.2964 18.9102 13.3424 18.9102 15.4551C18.9102 17.9812 18.0209 20.4134 16.3987 22.3403Z" fill="#2A255B"/>
<path d="M12.6785 11.4008C12.4384 11.1628 12.1754 10.9374 11.8936 10.7369L11.8205 10.6847L11.7766 10.7286L11.7579 10.7098L4.72654 17.7411C3.85389 16.1566 4.12946 14.1816 5.41756 12.8956C6.16078 12.1524 7.15034 11.7307 8.2067 11.7056H8.24846L10.1023 9.84967L9.92904 9.80166C7.78917 9.21919 5.48645 9.83088 3.92069 11.3966C1.8017 13.5156 1.50107 16.8163 3.19209 19.2756L3.17122 19.2964L3.28395 19.4071C3.47811 19.6743 3.69105 19.9248 3.92278 20.1545C4.14825 20.382 4.39877 20.595 4.65347 20.7787L4.74324 20.8685L11.8455 13.7662C12.7516 15.3612 12.4865 17.3549 11.1837 18.6576C10.4301 19.4113 9.42591 19.833 8.35702 19.8476H8.31527L6.46975 21.6931L6.64303 21.7411C8.79335 22.3361 11.1065 21.7286 12.6806 20.1545C15.0961 17.739 15.0961 13.81 12.6806 11.3966L12.6785 11.4008Z" fill="white"/>
<path d="M17.0125 9.37372L18.8706 7.15869L16.7808 9.04596L16.7683 9.03134L14.7871 11.0126C15.6806 12.3299 16.1524 13.8622 16.1524 15.4572C16.1524 17.2422 15.5449 18.9791 14.4363 20.38L16.3988 22.3424C18.0209 20.4155 18.9102 17.9833 18.9102 15.4572C18.9102 13.3445 18.2923 11.2986 17.1232 9.54074L17.0125 9.37372Z" fill="white"/>
<path d="M0.0375622 22.3654L1.99999 20.403C0.878903 18.9979 0.265119 17.2526 0.265119 15.4552C0.265119 13.8476 0.741116 12.3069 1.64717 10.9854L0.0020752 9.34033V22.3925L0.0333892 22.3633L0.0375622 22.3675V22.3654Z" fill="white"/>
<path d="M8.20875 23.4008C6.61167 23.4008 5.0814 22.929 3.76407 22.0355L1.79956 24H14.6597L12.6806 22.0188C11.3591 22.9249 9.81835 23.4008 8.20875 23.4008Z" fill="white"/>
<path d="M1.54906 7.4927L3.28393 9.22756C4.68476 8.119 6.42171 7.51149 8.20668 7.51149C9.99165 7.51149 11.7495 8.12527 13.1545 9.24635L15.1169 7.28393C13.1858 5.64928 10.7453 4.75366 8.20668 4.75366C5.8643 4.75366 3.63674 5.49896 1.76827 6.90815L1.59917 7.0355L0 5.71399V5.84343L1.32568 7.27349L1.54906 7.49061V7.4927Z" fill="white"/>
<path d="M35 16.5423C35 16.3588 35.0873 16.1754 35.2577 16.0051C35.428 15.8304 35.6202 15.743 35.8298 15.743C35.9652 15.743 36.1356 15.8173 36.3452 15.9614C36.5548 16.1055 36.7732 16.2671 36.996 16.4506C37.2187 16.6296 37.5725 16.7912 38.0529 16.9397C38.5333 17.0839 39.0705 17.1581 39.6733 17.1581C40.6472 17.1581 41.4116 16.9747 41.9662 16.6122C42.5209 16.2453 42.7961 15.7124 42.7961 15.0049C42.7961 14.3672 42.5427 13.8475 42.0317 13.4457C41.5207 13.0439 40.9093 12.7425 40.1886 12.5329C39.468 12.3232 38.7473 12.1005 38.018 11.8647C37.293 11.6288 36.6728 11.2619 36.1618 10.7684C35.6508 10.2749 35.3974 9.64156 35.3974 8.86414C35.3974 8.25268 35.5459 7.72422 35.8473 7.27436C36.1487 6.82451 36.5461 6.48383 37.0484 6.25672C37.5506 6.02961 38.0704 5.85927 38.612 5.75445C39.1492 5.64963 39.73 5.59723 40.3415 5.59723C41.2718 5.59723 42.1584 5.70205 43.0057 5.91169C43.853 6.12133 44.2766 6.40958 44.2766 6.77646C44.2766 6.93806 44.2024 7.11276 44.0539 7.30057C43.9054 7.48837 43.7089 7.58008 43.4687 7.58008C43.4075 7.58008 43.0625 7.4709 42.4335 7.24816C41.8046 7.02978 41.1058 6.91622 40.3415 6.91622C39.4287 6.91622 38.6906 7.06035 38.1272 7.35297C37.5637 7.64123 37.2842 8.09982 37.2842 8.72875C37.2842 9.26159 37.5375 9.69397 38.0485 10.0259C38.5595 10.3578 39.1754 10.6199 39.9047 10.8164C40.6298 11.013 41.3548 11.2401 42.0754 11.4934C42.7961 11.7467 43.4075 12.1573 43.9185 12.7207C44.4295 13.2841 44.6828 14.0004 44.6828 14.8695C44.6828 16.0662 44.233 16.9659 43.3333 17.573C42.4336 18.1801 41.2412 18.4858 39.7606 18.4858C38.4285 18.4858 37.3017 18.2675 36.3801 17.8351C35.4586 17.4027 35 16.9747 35 16.551V16.5423Z" fill="#29235C"/>
<path d="M50.3301 6.26115C50.3301 6.09081 50.3912 5.94232 50.5091 5.81129C50.6271 5.68026 50.793 5.61475 51.0027 5.61475H60.1483C60.358 5.61475 60.5239 5.68026 60.6418 5.81129C60.7598 5.94232 60.8209 6.09081 60.8209 6.26115C60.8209 6.44022 60.7598 6.60181 60.6418 6.73721C60.5195 6.8726 60.358 6.94248 60.1483 6.94248H56.532V17.8133C56.532 17.9749 56.4403 18.1059 56.2525 18.1976C56.0647 18.2894 55.8419 18.3374 55.5886 18.3374C55.3353 18.3374 55.1125 18.2894 54.9247 18.1976C54.7369 18.1059 54.6452 17.9749 54.6452 17.8133V6.94248H51.0027C50.793 6.94248 50.6271 6.87698 50.5091 6.74595C50.3912 6.61492 50.3301 6.45332 50.3301 6.26115Z" fill="#29235C"/>
<path d="M67.2281 17.8133V6.13886C67.2281 5.97726 67.3154 5.8506 67.4857 5.75451C67.6561 5.66279 67.857 5.61475 68.0797 5.61475H76.0811C76.2907 5.61475 76.4523 5.68026 76.5659 5.80692C76.6794 5.93358 76.7362 6.08645 76.7362 6.26115C76.7362 6.44895 76.675 6.60618 76.5571 6.74158C76.4392 6.87697 76.2776 6.94248 76.0854 6.94248H69.1192V11.3624H72.6263C72.8229 11.3624 72.9801 11.4236 73.098 11.5459C73.216 11.6682 73.2771 11.8167 73.2771 11.9914C73.2771 12.1442 73.2203 12.2796 73.1068 12.4019C72.9932 12.5242 72.8316 12.5853 72.622 12.5853H69.1148V17.0228H76.0811C76.2776 17.0228 76.4348 17.0883 76.5528 17.2237C76.6707 17.3591 76.7318 17.5163 76.7318 17.7041C76.7318 17.8788 76.675 18.0273 76.5615 18.1583C76.4479 18.285 76.2863 18.3505 76.0767 18.3505H68.0754C67.8526 18.3505 67.6517 18.3025 67.4814 18.2107C67.311 18.119 67.2237 17.9924 67.2237 17.8264L67.2281 17.8133Z" fill="#29235C"/>
<path d="M83.2744 17.8133V6.12138C83.2744 5.95978 83.3661 5.83313 83.5539 5.74578C83.7417 5.65843 83.9601 5.61475 84.2178 5.61475C84.4755 5.61475 84.6939 5.65843 84.8817 5.74578C85.0695 5.83313 85.1612 5.95542 85.1612 6.12138V17.014H91.2976C91.4941 17.014 91.6426 17.0795 91.7474 17.2149C91.8523 17.3503 91.9047 17.5032 91.9047 17.6779C91.9047 17.8526 91.8523 18.0055 91.7474 18.1409C91.6426 18.2763 91.4941 18.3418 91.2976 18.3418H84.1304C83.9077 18.3418 83.7068 18.2937 83.5365 18.202C83.3661 18.1103 83.2788 17.9836 83.2788 17.8176L83.2744 17.8133Z" fill="#29235C"/>
<path d="M98.2856 17.8133V6.12138C98.2856 5.95978 98.3773 5.83313 98.5651 5.74578C98.7529 5.65843 98.9713 5.61475 99.229 5.61475C99.4867 5.61475 99.705 5.65843 99.8928 5.74578C100.081 5.83313 100.172 5.95542 100.172 6.12138V17.014H106.309C106.505 17.014 106.654 17.0795 106.759 17.2149C106.863 17.3503 106.916 17.5032 106.916 17.6779C106.916 17.8526 106.863 18.0055 106.759 18.1409C106.654 18.2763 106.505 18.3418 106.309 18.3418H99.1416C98.9189 18.3418 98.718 18.2937 98.5476 18.202C98.3773 18.1103 98.29 17.9836 98.29 17.8176L98.2856 17.8133Z" fill="#29235C"/>
<path d="M112.083 17.7259C112.083 17.7041 112.096 17.656 112.126 17.5862L116.725 6.02092C116.856 5.68025 117.241 5.51428 117.87 5.51428C118.499 5.51428 118.883 5.68461 119.014 6.02528L123.63 17.6342C123.63 17.6342 123.63 17.6779 123.644 17.6997C123.652 17.7216 123.657 17.739 123.657 17.7478C123.657 17.9006 123.534 18.036 123.285 18.1583C123.036 18.2806 122.77 18.3374 122.486 18.3374C122.128 18.3374 121.901 18.2282 121.814 18.0098L120.827 15.433H114.878L113.891 18.0011C113.804 18.2282 113.576 18.3374 113.205 18.3374C112.939 18.3374 112.685 18.2806 112.445 18.1627C112.201 18.0491 112.083 17.9006 112.083 17.7259ZM115.345 14.2101H120.359L117.861 7.65437L115.345 14.2101Z" fill="#29235C"/>
<path d="M130.151 17.8133V6.12138C130.151 5.98162 130.217 5.86807 130.343 5.77198C130.47 5.68027 130.632 5.62785 130.828 5.61475H134.942C136.441 5.61475 137.646 5.88554 138.559 6.42274C139.472 6.95995 139.93 7.85094 139.93 9.09132C139.93 11.0043 138.812 12.1355 136.58 12.4849L139.908 17.3722C139.969 17.4552 140 17.5338 140 17.6167C140 17.8002 139.878 17.9749 139.642 18.1278C139.402 18.285 139.148 18.3636 138.878 18.3636C138.563 18.3636 138.279 18.1714 138.022 17.7871L134.628 12.6902H132.042V17.8045C132.042 17.9661 131.951 18.0928 131.763 18.1889C131.575 18.2806 131.352 18.3287 131.099 18.3287C130.846 18.3287 130.623 18.2806 130.435 18.1889C130.247 18.0972 130.156 17.9705 130.156 17.8045L130.151 17.8133ZM132.038 11.4804H134.938C137.004 11.4804 138.039 10.7204 138.039 9.20051C138.039 7.6806 137.004 6.93812 134.938 6.93812H132.038V11.4804Z" fill="#29235C"/>
</svg>
