<svg width="24" height="24" viewBox="0 0 24 24" fill="none" xmlns="http://www.w3.org/2000/svg">
<rect width="24" height="14.4" transform="translate(0 5)" fill="#13A8E0"/>
<path d="M2.20941 9.80369L1.74943 8.64466L1.29207 9.80369H2.20941ZM12.3428 9.34216C12.2505 9.40013 12.1413 9.40205 12.0104 9.40205H11.194V8.75629H12.0215C12.1386 8.75629 12.2608 8.76173 12.3402 8.80873C12.4274 8.85108 12.4813 8.94123 12.4813 9.06575C12.4813 9.19282 12.43 9.29507 12.3428 9.34216ZM18.1671 9.80369L17.702 8.64466L17.2395 9.80369H18.1671ZM7.3103 11.0582H6.62134L6.6188 8.78119L5.6443 11.0582H5.05422L4.07717 8.77918V11.0582H2.71027L2.45204 10.4097H1.05275L0.791886 11.0582H0.0619641L1.26544 8.15086H2.26394L3.40695 10.9035V8.15086H4.50383L5.38335 10.1231L6.19129 8.15086H7.31022L7.3103 11.0582ZM10.0562 11.0582H7.81117V8.15086H10.0562V8.75629H8.48325V9.28034H10.0185V9.87629H8.48325V10.4569H10.0562V11.0582ZM13.2217 8.93387C13.2217 9.39741 12.9225 9.63689 12.7481 9.7088C12.8952 9.76668 13.0208 9.86893 13.0806 9.95364C13.1755 10.0982 13.1918 10.2274 13.1918 10.4871V11.0582H12.514L12.5114 10.6916C12.5114 10.5166 12.5276 10.265 12.4053 10.1252C12.3071 10.0229 12.1575 10.0007 11.9155 10.0007H11.1941V11.0582H10.5221V8.15086H12.0678C12.4113 8.15086 12.6643 8.16024 12.8816 8.29012C13.0942 8.41999 13.2217 8.60958 13.2217 8.93387ZM14.2972 11.0582H13.6114V8.15086H14.2972V11.0582ZM22.2526 11.0582H21.3003L20.0264 8.87608V11.0582H18.6577L18.3962 10.4097H17.0001L16.7464 11.0582H15.96C15.6333 11.0582 15.2197 10.9835 14.9855 10.7366C14.7493 10.4898 14.6264 10.1554 14.6264 9.62672C14.6264 9.19554 14.6998 8.80136 14.9887 8.48988C15.206 8.25785 15.5462 8.15086 16.0093 8.15086H16.66V8.77383H16.023C15.7777 8.77383 15.6392 8.81153 15.5058 8.94605C15.3913 9.06847 15.3126 9.29989 15.3126 9.60462C15.3126 9.91611 15.3725 10.1407 15.4974 10.2874C15.6009 10.4024 15.7889 10.4373 15.9658 10.4373H16.2676L17.2148 8.15095H18.2218L19.3597 10.9009V8.15095H20.3829L21.5643 10.1758V8.15095H22.2526V11.0582ZM0.0540771 11.6293H1.20243L1.46134 10.9835H2.04099L2.29922 11.6293H4.55853V11.1356L4.7602 11.6314H5.93306L6.13473 11.1282V11.6293H11.7495L11.7469 10.5692H11.8555C11.9316 10.572 11.9538 10.5792 11.9538 10.7091V11.6293H14.8578V11.3825C15.0921 11.5123 15.4564 11.6293 15.9358 11.6293H17.1575L17.419 10.9835H17.9986L18.2543 11.6293H20.6086V11.0159L20.9651 11.6293H22.8517V7.57437H20.9846V8.05326L20.7232 7.57437H18.8073V8.05326L18.5672 7.57437H15.9794C15.5462 7.57437 15.1654 7.6369 14.8578 7.81114V7.57437H13.072V7.81114C12.8763 7.63155 12.6096 7.57437 12.313 7.57437H5.78864L5.35087 8.62168L4.90131 7.57437H2.8463V8.05326L2.62055 7.57437H0.867957L0.0540771 9.50229V11.6293Z" fill="white"/>
<path d="M23.9647 13.7738H22.7398C22.6176 13.7738 22.5363 13.7785 22.4679 13.8263C22.397 13.8734 22.3697 13.9433 22.3697 14.0355C22.3697 14.1452 22.4295 14.2199 22.5166 14.2521C22.5875 14.2777 22.6637 14.2851 22.7756 14.2851L23.1399 14.2952C23.5074 14.3046 23.7528 14.3699 23.9024 14.5293C23.9296 14.5514 23.9459 14.5763 23.9647 14.6012V13.7738ZM23.9647 15.691C23.8014 15.9379 23.4833 16.063 23.0527 16.063H21.7548V15.4394H23.0474C23.1757 15.4394 23.2654 15.422 23.3194 15.3674C23.3662 15.3224 23.3989 15.2571 23.3989 15.1777C23.3989 15.093 23.3662 15.0258 23.3168 14.9854C23.268 14.9411 23.197 14.9209 23.08 14.9209C22.449 14.8987 21.6617 14.9411 21.6617 14.0208C21.6617 13.599 21.9207 13.155 22.6259 13.155H23.9647V12.5764H22.7208C22.3455 12.5764 22.0728 12.6694 21.8797 12.8139V12.5764H20.0401C19.7459 12.5764 19.4005 12.6518 19.2372 12.8139V12.5764H15.952V12.8139C15.6905 12.6189 15.2494 12.5764 15.0458 12.5764H12.8788V12.8139C12.672 12.6068 12.212 12.5764 11.9316 12.5764H9.50643L8.95146 13.1975L8.43169 12.5764H4.80896V16.6341H8.3635L8.93535 16.0033L9.47403 16.6341L11.6651 16.6361V15.6816H11.8805C12.1712 15.6863 12.5141 15.6742 12.8166 15.5389V16.634H14.6238V15.5765H14.711C14.8222 15.5765 14.8332 15.5812 14.8332 15.6962V16.634H20.3231C20.6717 16.634 21.036 16.5417 21.2378 16.3743V16.634H22.9792C23.3415 16.634 23.6954 16.5814 23.9647 16.4469V15.691ZM21.2839 14.5293C21.4148 14.6693 21.4849 14.8461 21.4849 15.1454C21.4849 15.771 21.1069 16.063 20.4291 16.063H19.1202V15.4394H20.4239C20.5513 15.4394 20.6418 15.422 20.6984 15.3674C20.7446 15.3224 20.7778 15.2571 20.7778 15.1777C20.7778 15.093 20.7419 15.0258 20.6958 14.9854C20.6444 14.9411 20.5735 14.9209 20.4564 14.9209C19.828 14.8987 19.0409 14.9411 19.0409 14.0208C19.0409 13.599 19.2972 13.155 20.0017 13.155H21.349V13.774H20.1162C19.994 13.774 19.9145 13.7787 19.847 13.8265C19.7733 13.8736 19.746 13.9435 19.746 14.0357C19.746 14.1454 19.8085 14.22 19.8931 14.2523C19.964 14.2778 20.0401 14.2853 20.1546 14.2853L20.5164 14.2954C20.8812 14.3046 21.1317 14.3698 21.2839 14.5293ZM15.2196 14.3497C15.1297 14.4048 15.0185 14.4096 14.8878 14.4096H14.0713V13.7564H14.8989C15.0185 13.7564 15.1383 13.759 15.2196 13.8089C15.3067 13.856 15.3588 13.9461 15.3588 14.0705C15.3588 14.195 15.3067 14.2952 15.2196 14.3497ZM15.6255 14.7116C15.7751 14.7687 15.8974 14.871 15.9547 14.9557C16.0496 15.0977 16.0633 15.2302 16.0661 15.4865V16.063H15.3913V15.6992C15.3913 15.5242 15.4076 15.2652 15.2827 15.1299C15.1845 15.0258 15.0348 15.0009 14.7897 15.0009H14.0714V16.063H13.3961V13.1549H14.9477C15.288 13.1549 15.5358 13.1705 15.7564 13.2922C15.9684 13.4247 16.1018 13.6062 16.1018 13.9379C16.1018 14.4021 15.8024 14.639 15.6255 14.7116ZM16.4745 13.1549H18.7175V13.7563H17.1438V14.285H18.6791V14.8784H17.1438V15.4569L18.7175 15.4596V16.063H16.4745V13.1549ZM11.9402 14.497H11.0717V13.7564H11.948C12.1906 13.7564 12.359 13.8587 12.359 14.113C12.359 14.3645 12.1984 14.497 11.9402 14.497ZM10.4023 15.7985L9.37049 14.614L10.4023 13.467V15.7985ZM7.73764 15.4569H6.08528V14.8784H7.56073V14.285H6.08528V13.7563H7.7702L8.5053 14.6038L7.73764 15.4569ZM13.0806 14.113C13.0806 14.9208 12.4977 15.0876 11.9102 15.0876H11.0717V16.063H9.76543L8.93789 15.1003L8.07788 16.063H5.41583V13.1549H8.11884L8.94569 14.1082L9.80054 13.1549H11.948C12.4813 13.1549 13.0806 13.3076 13.0806 14.113Z" fill="white"/>
</svg>
