<svg width="24" height="24" viewBox="0 0 24 24" fill="none" xmlns="http://www.w3.org/2000/svg">
<path d="M14.06 21.1873C19.2567 21.2124 24 16.9102 24 11.6767C24 5.95399 19.2567 1.99786 14.06 2H9.5875C4.32888 1.99786 0 5.95505 0 11.6767C0 16.9113 4.32888 21.2124 9.5875 21.1873H14.06Z" fill="#0079BE"/>
<path d="M9.60884 2.79303C4.80308 2.79463 0.909439 6.72512 0.907837 11.5763C0.909439 16.4269 4.80308 20.3574 9.60884 20.359C14.4151 20.3574 18.3104 16.4269 18.3109 11.5763C18.3104 6.72512 14.4157 2.79463 9.60884 2.79303ZM4.09388 11.5763C4.09287 10.4546 4.43025 9.3588 5.06193 8.43196C5.69361 7.50512 6.5902 6.79039 7.63452 6.3812V16.7708C6.59011 16.3619 5.69342 15.6473 5.06171 14.7205C4.43 13.7937 4.09268 12.6979 4.09388 11.5763ZM11.5826 16.773V6.38067C12.6277 6.78928 13.5251 7.50394 14.1572 8.43109C14.7894 9.35824 15.1268 10.4547 15.1254 11.5768C15.1266 12.6989 14.7891 13.7952 14.157 14.7223C13.5249 15.6495 12.6276 16.3642 11.5826 16.773Z" fill="white"/>
<path d="M14.06 21.1873C19.2567 21.2124 24 16.9102 24 11.6767C24 5.95399 19.2567 1.99786 14.06 2H9.5875C4.32888 1.99786 0 5.95505 0 11.6767C0 16.9113 4.32888 21.2124 9.5875 21.1873H14.06Z" fill="#0079BE"/>
<path d="M9.60884 2.79303C4.80308 2.79463 0.909439 6.72512 0.907837 11.5763C0.909439 16.4269 4.80308 20.3574 9.60884 20.359C14.4151 20.3574 18.3104 16.4269 18.3109 11.5763C18.3104 6.72512 14.4157 2.79463 9.60884 2.79303ZM4.09388 11.5763C4.09287 10.4546 4.43025 9.3588 5.06193 8.43196C5.69361 7.50512 6.5902 6.79039 7.63452 6.3812V16.7708C6.59011 16.3619 5.69342 15.6473 5.06171 14.7205C4.43 13.7937 4.09268 12.6979 4.09388 11.5763ZM11.5826 16.773V6.38067C12.6277 6.78928 13.5251 7.50394 14.1572 8.43109C14.7894 9.35824 15.1268 10.4547 15.1254 11.5768C15.1266 12.6989 14.7891 13.7952 14.157 14.7223C13.5249 15.6495 12.6276 16.3642 11.5826 16.773Z" fill="white"/>
</svg>
