<svg width="24" height="24" viewBox="0 0 24 24" fill="none" xmlns="http://www.w3.org/2000/svg">
<path d="M8.79993 17.7747L23.9999 13.3494V16.7747C23.9999 17.327 23.5522 17.7747 22.9999 17.7747H8.79993Z" fill="#FD6020"/>
<path fill-rule="evenodd" clip-rule="evenodd" d="M21.1149 7.08531C21.9512 7.08531 22.4111 7.45746 22.4111 8.1604C22.4529 8.69794 22.0766 9.15278 21.5749 9.23548L22.7038 10.7654H21.8257L20.8641 9.27683H20.7804V10.7654H20.0696V7.08531H21.1149ZM20.7805 8.78063H20.9895C21.4495 8.78063 21.6585 8.57388 21.6585 8.20174C21.6585 7.87094 21.4495 7.66419 20.9895 7.66419H20.7805V8.78063ZM17.6028 10.7654H19.6098V10.1452H18.3136V9.15278H19.568V8.53254H18.3136V7.70555H19.6098V7.08531H17.6028V10.7654ZM15.5121 9.56627L14.5505 7.08531H13.7979L15.3449 10.8481H15.7212L17.2682 7.08531H16.5156L15.5121 9.56627ZM7.02436 8.94603C7.02436 9.97977 7.86059 10.8481 8.90589 10.8481C9.24038 10.8481 9.53306 10.7654 9.82575 10.6414V9.81437C9.61669 10.0625 9.324 10.2279 8.98951 10.2279C8.32052 10.2279 7.77697 9.73167 7.77697 9.07008V8.98738C7.73516 8.32579 8.27871 7.7469 8.9477 7.70555C9.28219 7.70555 9.61669 7.87095 9.82575 8.11905V7.29206C9.57487 7.12666 9.24038 7.08531 8.9477 7.08531C7.86059 7.00262 7.02436 7.87095 7.02436 8.94603ZM5.72815 8.49119C5.31003 8.32579 5.18459 8.24309 5.18459 8.03635C5.22641 7.78825 5.43546 7.5815 5.68633 7.62285C5.89539 7.62285 6.10445 7.7469 6.2717 7.9123L6.64801 7.41611C6.35532 7.16801 5.97902 7.00261 5.60271 7.00261C5.01735 6.96126 4.5156 7.41611 4.47379 7.995V8.03635C4.47379 8.53254 4.68285 8.82198 5.35184 9.02873C5.51909 9.07008 5.68633 9.15278 5.85358 9.23548C5.97902 9.31818 6.06264 9.44222 6.06264 9.60762C6.06264 9.89707 5.81177 10.1452 5.5609 10.1452H5.51909C5.18459 10.1452 4.89191 9.93842 4.76648 9.64897L4.30655 10.1038C4.55742 10.5587 5.05916 10.8068 5.5609 10.8068C6.22989 10.8481 6.77344 10.3519 6.81525 9.69032V9.56627C6.77344 9.07008 6.56438 8.82198 5.72815 8.49119ZM3.30311 10.7654H4.01391V7.08531H3.30311V10.7654ZM0 7.08531H1.04529H1.25435C2.25784 7.12666 3.05226 7.95365 3.01045 8.94603C3.01045 9.48357 2.75958 9.97977 2.34146 10.3519C1.96515 10.6414 1.50522 10.8068 1.04529 10.7654H0V7.08531ZM0.919852 10.1452C1.25435 10.1865 1.63065 10.0625 1.88152 9.85572C2.13239 9.60762 2.25783 9.27683 2.25783 8.90469C2.25783 8.57389 2.13239 8.2431 1.88152 7.995C1.63065 7.78825 1.25435 7.66421 0.919852 7.70556H0.710793V10.1452H0.919852Z" fill="black"/>
<path fill-rule="evenodd" clip-rule="evenodd" d="M11.9581 7C10.9128 7 10.0348 7.82699 10.0348 8.90207C10.0348 9.9358 10.871 10.8041 11.9581 10.8455C13.0452 10.8868 13.8815 10.0185 13.9233 8.94342C13.8815 7.86834 13.0452 7 11.9581 7V7Z" fill="#FD6020"/>
</svg>
