<svg width="24" height="24" viewBox="0 0 24 24" fill="none" xmlns="http://www.w3.org/2000/svg">
<path fill-rule="evenodd" clip-rule="evenodd" d="M0 18.2042V5.04956C0 5.04956 0.174965 4.00003 1.64431 4.00003C3.11366 4.00003 22.8805 4.0351 22.8805 4.0351C22.8805 4.0351 24 4.0351 24 5.57446C24 7.11381 24 18.519 24 18.519C24 18.519 23.895 19.5686 22.5305 19.5686C21.1661 19.5686 1.39947 19.5686 1.39947 19.5686C1.39947 19.5686 0.209903 19.6736 0 18.2042Z" fill="#8D1238"/>
<path fill-rule="evenodd" clip-rule="evenodd" d="M23.3229 13.0614L23.3234 10.7989H17.3526C17.3526 10.7989 17.2478 10.8224 17.2478 10.7057C17.2478 10.589 17.2485 9.4112 17.2485 9.4112C17.2485 9.4112 17.2245 9.31452 17.3875 9.31452C17.5507 9.31452 22.7986 9.31091 22.7986 9.31091C22.7986 9.31091 23.2884 9.32958 23.2884 8.78149C23.2884 8.23324 23.2884 7.17211 23.2884 7.17211C23.2884 7.17211 23.2298 5.07304 20.8044 4.75818C20.2332 4.75818 17.5275 4.75818 17.5275 4.75818C17.5275 4.75818 14.9304 4.76086 14.7555 7.40802C14.7555 9.81047 14.7637 10.7639 14.7637 10.7639C14.7637 10.7639 14.9037 12.9445 17.3758 13.0632L23.3229 13.0614Z" fill="white"/>
<path fill-rule="evenodd" clip-rule="evenodd" d="M17.3264 6.9651H20.7725L20.773 7.64723C20.773 7.64723 20.8075 7.71725 20.6676 7.71725C20.5275 7.71725 17.216 7.71725 17.216 7.71725L17.2127 7.08753C17.2127 7.08753 17.1953 6.9651 17.3264 6.9651Z" fill="#8D1238"/>
<path fill-rule="evenodd" clip-rule="evenodd" d="M6.54227 17.5355L6.34984 18.2774L4.09328 18.2741C4.09328 18.2741 3.41982 18.2829 3.40234 17.5307C3.56851 16.7873 3.80469 16.0175 3.80469 16.0175C3.80469 16.0175 3.96206 15.3878 4.74927 15.3964C5.48394 15.4047 6.27982 15.4024 6.27982 15.4024C6.27982 15.4024 6.97543 15.4502 6.90967 16.0961C6.85714 16.6123 6.80473 16.6735 6.80473 16.6735C6.80473 16.6735 6.83086 16.9972 6.3061 16.9857L4.54803 16.9797C4.54803 16.9797 4.42561 16.9621 4.37306 17.0933C4.32066 17.2245 4.25944 17.3732 4.25944 17.3732C4.25944 17.3732 4.22451 17.5291 4.35573 17.5378L6.54227 17.5355Z" fill="white"/>
<path fill-rule="evenodd" clip-rule="evenodd" d="M4.74057 16.1576H5.98253C5.98253 16.1576 6.07015 16.14 6.05254 16.2363C6.03508 16.3325 6.07882 16.4811 5.86891 16.4811C5.65901 16.4811 4.62693 16.486 4.62693 16.486C4.62693 16.486 4.52199 16.4986 4.54813 16.4112C4.5744 16.3235 4.60068 16.1487 4.74057 16.1576Z" fill="#8D1238"/>
<path fill-rule="evenodd" clip-rule="evenodd" d="M8.41406 18.2748L9.20996 15.4584C9.20996 15.4584 9.41105 14.8373 9.95329 14.8373C10.0757 14.8286 10.2069 14.8461 10.2069 14.8461L10.0757 15.432L10.7317 15.4386L10.5305 16.2592L9.9621 16.2543C9.9621 16.2543 9.85714 16.2368 9.80473 16.3855C9.73471 16.5836 9.25356 18.2785 9.25356 18.2785L8.41406 18.2748Z" fill="white"/>
<path fill-rule="evenodd" clip-rule="evenodd" d="M6.58606 18.2796L7.6356 14.5974C7.6356 14.5974 7.88924 14.0464 8.44908 14.0464C9.00878 14.0464 9.2887 14.0495 9.2887 14.0495L9.10494 14.7904L8.66766 14.7897C8.66766 14.7897 8.42281 14.7636 8.37027 14.9297C8.31786 15.0959 8.28278 15.2184 8.28278 15.2184C8.28278 15.2184 8.19544 15.4195 8.37027 15.4195C8.54537 15.4195 8.93877 15.4228 8.93877 15.4228L8.72021 16.2241H8.25651C8.25651 16.2241 8.02047 16.1875 7.95926 16.4079C7.88658 16.6694 7.43435 18.2796 7.43435 18.2796L6.58606 18.2796Z" fill="white"/>
<path fill-rule="evenodd" clip-rule="evenodd" d="M9.97961 19.0176L10.8367 16C10.8367 16 11.0468 15.414 11.6589 15.414C12.2711 15.414 13.3118 15.414 13.3118 15.414C13.3118 15.414 14.0115 15.4404 13.9329 16.1924L13.5568 17.6268C13.5568 17.6268 13.4255 18.2741 12.551 18.2741C11.6765 18.2741 11.3265 18.2741 11.3265 18.2741L11.5366 17.4519L12.5598 17.4597C12.5598 17.4597 12.7697 17.4956 12.8134 17.2946C12.8834 17.0496 13.0758 16.35 13.0758 16.35C13.0758 16.35 13.1545 16.2188 12.9707 16.2188C12.7871 16.2188 11.8076 16.2188 11.8076 16.2188C11.8076 16.2188 11.6415 16.1837 11.589 16.3586C11.5276 16.5599 10.8194 19.0262 10.8194 19.0262L9.97961 19.0176Z" fill="white"/>
<path fill-rule="evenodd" clip-rule="evenodd" d="M13.9066 17.3207L14.239 16.0961C14.239 16.0961 14.4314 15.414 15.0698 15.414C15.7084 15.414 16.723 15.414 16.723 15.414C16.723 15.414 17.5364 15.4665 17.3791 16.2013C17.2216 16.936 17.0116 17.6181 17.0116 17.6181C17.0116 17.6181 16.8629 18.2741 16.0495 18.2741C15.236 18.2741 14.6415 18.2741 14.6415 18.2741C14.6415 18.2741 13.7055 18.2741 13.9066 17.3207Z" fill="white"/>
<path fill-rule="evenodd" clip-rule="evenodd" d="M15.2536 16.2099L16.3555 16.2159C16.3555 16.2159 16.5481 16.1837 16.5217 16.3149C16.4956 16.4461 16.2594 17.2682 16.2594 17.2682C16.2594 17.2682 16.207 17.4082 16.0582 17.4169C15.8481 17.4292 14.8513 17.4169 14.8513 17.4169C14.8513 17.4169 14.7201 17.4258 14.7638 17.2857C14.824 17.093 15.0436 16.3062 15.0436 16.3062C15.0436 16.3062 15.0523 16.2099 15.2536 16.2099Z" fill="#8D1238"/>
<path fill-rule="evenodd" clip-rule="evenodd" d="M17.2216 18.2785L17.4052 17.499L19.3905 17.4956C19.3905 17.4956 19.5655 17.5307 19.6093 17.3382C19.6268 17.1983 19.6268 17.1819 19.6268 17.1819L18.4722 17.1808C18.4722 17.1808 17.5713 17.2245 17.6239 16.3674C17.6763 15.5102 18.3498 15.3964 18.5772 15.3964C18.8046 15.3964 20.79 15.3964 20.79 15.3964L20.5888 16.14H18.6995C18.6995 16.14 18.5597 16.1225 18.5335 16.2887C18.5335 16.2887 18.4372 16.4548 18.6121 16.4636C18.7871 16.4722 19.7842 16.4636 19.7842 16.4636C19.7842 16.4636 20.5626 16.4373 20.5189 17.1894C20.4751 17.9417 20.0541 18.2741 19.5558 18.2741L17.2216 18.2785Z" fill="white"/>
</svg>
