<svg width="24" height="24" viewBox="0 0 24 24" fill="none" xmlns="http://www.w3.org/2000/svg">
<path d="M18.0736 12.3509C18.7239 12.365 19.3778 12.3222 20.0254 12.3731C20.6812 12.4955 20.8393 13.4884 20.2566 13.8135C19.8591 14.0278 19.3868 13.8933 18.9558 13.9311H18.0736V12.3509ZM20.4014 10.5623C20.5458 11.0722 20.0543 11.53 19.5632 11.4598H18.0736C18.0841 10.9789 18.0532 10.457 18.0888 10.0015C18.6855 10.0183 19.2877 9.96719 19.8809 10.0282C20.1358 10.0922 20.3492 10.3018 20.4014 10.5623ZM23.9861 3.00055C24.0138 3.97434 23.9901 4.9996 23.998 5.99314C23.9962 10.0325 24.0019 14.0718 23.9949 18.1114C23.9687 19.6252 22.6271 20.9407 21.1237 20.9709C19.6189 20.977 18.1138 20.9718 16.6088 20.9735V14.8668C18.2486 14.8583 19.8892 14.884 21.5284 14.854C22.2888 14.8063 23.1217 14.3045 23.1571 13.4677C23.2466 12.6273 22.4543 12.046 21.702 11.9542C21.4128 11.9467 21.4213 11.8699 21.702 11.8364C22.4195 11.6814 22.9829 10.9388 22.7718 10.195C22.5919 9.41283 21.7274 9.11009 21.0082 9.11159C19.542 9.10163 18.0754 9.1102 16.6091 9.1073C16.6186 7.96726 16.5893 6.82599 16.6248 5.68678C16.741 4.20025 18.1164 2.97435 19.5987 3.00094C21.0613 3.00072 22.5238 3.00072 23.9861 3.00067V3.00055Z" fill="url(#paint0_linear_2356_139670)"/>
<path d="M0.0390017 5.84091C0.0764487 4.32945 1.42382 3.02482 2.92525 3.00273C4.42452 2.99811 5.92402 3.00206 7.42328 3.00072C7.41917 8.05773 7.43141 13.1153 7.41711 18.172C7.35935 19.6651 6.02668 20.9449 4.54159 20.9713C3.03949 20.9768 1.53721 20.9721 0.0350512 20.9736V14.661C1.49415 15.0057 3.02424 15.1525 4.51277 14.9238C5.40254 14.7807 6.37605 14.3437 6.6773 13.4206C6.89897 12.631 6.77417 11.8 6.80716 10.9896V9.10747H4.23111C4.21954 10.3522 4.25482 11.5992 4.21247 12.8424C4.14303 13.6066 3.38625 14.0921 2.66552 14.0662C1.77169 14.0757 0.000441459 13.4184 0.000441459 13.4184C-0.00400989 11.0863 0.026371 8.16557 0.0390017 5.84113V5.84091Z" fill="url(#paint1_linear_2356_139670)"/>
<path d="M8.38392 9.86649C8.24832 9.89525 8.35665 9.4046 8.32199 9.21848C8.33123 8.04166 8.30268 6.86355 8.33774 5.68756C8.45358 4.19475 9.83955 2.96578 11.3278 3.00073H15.7106C15.7064 8.05774 15.7186 13.1153 15.7044 18.172C15.6466 19.6651 14.3138 20.9448 12.8287 20.9713C11.3265 20.977 9.8242 20.9722 8.32193 20.9737V14.0574C9.34791 14.8992 10.7423 15.0302 12.0205 15.0325C12.9841 15.0322 13.9421 14.8836 14.8779 14.6614V13.3943C13.8233 13.9199 12.5836 14.2537 11.4146 13.9518C10.5991 13.7488 10.0071 12.9607 10.0203 12.1191C9.92585 11.2439 10.4389 10.3199 11.2989 10.0597C12.3667 9.72543 13.5305 9.98111 14.5315 10.4157C14.7459 10.528 14.9636 10.6673 14.8778 10.3088V9.3129C13.2038 8.91462 11.4223 8.76806 9.74046 9.20134C9.25365 9.33867 8.77936 9.54694 8.38392 9.8666V9.86649Z" fill="url(#paint2_linear_2356_139670)"/>
<defs>
<linearGradient id="paint0_linear_2356_139670" x1="16.5583" y1="11.6027" x2="23.9514" y2="11.6027" gradientUnits="userSpaceOnUse">
<stop stop-color="#58B03A"/>
<stop offset="1" stop-color="#55B330"/>
</linearGradient>
<linearGradient id="paint1_linear_2356_139670" x1="-0.122143" y1="12.1593" x2="7.30215" y2="12.1593" gradientUnits="userSpaceOnUse">
<stop stop-color="#0F6EB6"/>
<stop offset="1" stop-color="#006DBA"/>
</linearGradient>
<linearGradient id="paint2_linear_2356_139670" x1="8.31109" y1="11.777" x2="15.7092" y2="11.777" gradientUnits="userSpaceOnUse">
<stop stop-color="#DE0D3D"/>
<stop offset="1" stop-color="#E30138"/>
</linearGradient>
</defs>
</svg>
