<svg width="24" height="24" viewBox="0 0 24 24" fill="none" xmlns="http://www.w3.org/2000/svg">
<path d="M15.2451 6.17905H8.75537V17.8412H15.2451V6.17905Z" fill="#FF5F00"/>
<path d="M9.16737 12.0105C9.16635 10.8874 9.42086 9.77873 9.91165 8.76848C10.4024 7.75824 11.1166 6.87289 12.0002 6.17946C10.906 5.31945 9.59201 4.78462 8.20829 4.63611C6.82457 4.48759 5.42699 4.73138 4.17527 5.33961C2.92356 5.94784 1.86822 6.89597 1.12988 8.07562C0.391546 9.25528 0 10.6189 0 12.0105C0 13.4022 0.391546 14.7658 1.12988 15.9455C1.86822 17.1251 2.92356 18.0732 4.17527 18.6815C5.42699 19.2897 6.82457 19.5335 8.20829 19.385C9.59201 19.2365 10.906 18.7016 12.0002 17.8416C11.1166 17.1482 10.4024 16.2628 9.91165 15.2526C9.42087 14.2423 9.16635 13.1337 9.16737 12.0105Z" fill="#EB001B"/>
<path d="M24 12.0105C24.0001 13.4022 23.6086 14.7658 22.8703 15.9454C22.132 17.1251 21.0767 18.0732 19.825 18.6814C18.5733 19.2897 17.1757 19.5335 15.792 19.385C14.4083 19.2365 13.0943 18.7016 12.0002 17.8416C12.883 17.1475 13.5966 16.262 14.0873 15.2519C14.578 14.2418 14.833 13.1335 14.833 12.0105C14.833 10.8876 14.578 9.77925 14.0873 8.76917C13.5966 7.75908 12.883 6.87359 12.0002 6.17946C13.0943 5.31945 14.4083 4.78462 15.792 4.63611C17.1757 4.48759 18.5733 4.73139 19.825 5.33962C21.0767 5.94786 22.132 6.89599 22.8703 8.07565C23.6086 9.25531 24.0001 10.6189 24 12.0105Z" fill="#F79E1B"/>
<path d="M23.2925 16.6062V16.3674H23.3887V16.3188H23.1436V16.3674H23.2399V16.6062H23.2925ZM23.7685 16.6062V16.3183H23.6933L23.6069 16.5163L23.5204 16.3183H23.4452V16.6062H23.4983V16.389L23.5794 16.5762H23.6344L23.7154 16.3886V16.6062H23.7685Z" fill="#F79E1B"/>
</svg>
