<svg width="24" height="24" viewBox="0 0 24 24" fill="none" xmlns="http://www.w3.org/2000/svg">
<g clip-path="url(#clip0_2356_139379)">
<path d="M4.69138 4.00011H10.6706C11.5053 4.00011 12.0244 4.68042 11.8297 5.51783L9.04592 17.4696C8.84947 18.3041 8.0138 18.985 7.17857 18.985H1.19991C0.366426 18.985 -0.153863 18.3041 0.0408444 17.4696L2.82577 5.51783C3.02048 4.68042 3.85571 4.00011 4.69138 4.00011Z" fill="#E21836"/>
<path d="M10.1731 4.00008H17.049C17.8835 4.00008 17.5072 4.68039 17.3109 5.5178L14.5276 17.4696C14.3323 18.3041 14.3932 18.985 13.557 18.985H6.68101C5.84475 18.985 5.32723 18.3041 5.52369 17.4696L8.30687 5.5178C8.50449 4.68039 9.33798 4.00008 10.1731 4.00008Z" fill="#00447C"/>
<path d="M16.7763 4.00008H22.7555C23.5914 4.00008 24.1105 4.68039 23.9142 5.5178L21.1308 17.4696C20.9344 18.3041 20.0981 18.985 19.2625 18.985H13.286C12.4497 18.985 11.9311 18.3041 12.1269 17.4696L14.9107 5.5178C15.1054 4.68039 15.94 4.00008 16.7763 4.00008Z" fill="#007B84"/>
<path d="M6.25296 7.83028C5.63808 7.83654 5.45649 7.83028 5.39849 7.81658C5.37619 7.92253 4.96127 9.83652 4.9601 9.83812C4.87077 10.2254 4.80577 10.5014 4.58497 10.6796C4.45964 10.7832 4.31331 10.8332 4.14367 10.8332C3.871 10.8332 3.71214 10.6978 3.68547 10.441L3.68037 10.3529C3.68037 10.3529 3.76344 9.83419 3.76344 9.83128C3.76344 9.83128 4.19891 8.08707 4.27688 7.85651C4.28096 7.84339 4.28213 7.83654 4.28315 7.83028C3.43553 7.83771 3.28527 7.83028 3.27492 7.81658C3.26924 7.83538 3.24825 7.94352 3.24825 7.94352L2.8036 9.90939L2.76542 10.0761L2.69153 10.6215C2.69153 10.7832 2.7233 10.9153 2.78655 11.0269C2.98913 11.3809 3.56698 11.434 3.89388 11.434C4.31506 11.434 4.71016 11.3445 4.97716 11.1811C5.44061 10.9073 5.56186 10.4792 5.67 10.0989L5.72013 9.90371C5.72013 9.90371 6.16872 8.09217 6.24494 7.85651C6.24786 7.84339 6.24902 7.83654 6.25296 7.83028ZM7.77924 9.29166C7.6711 9.29166 7.47348 9.31789 7.29597 9.4049C7.23155 9.43798 7.17063 9.47617 7.10636 9.51421L7.16437 9.30478L7.1326 9.26951C6.75615 9.34573 6.67191 9.35593 6.32418 9.4049L6.29503 9.42428C6.25466 9.75905 6.21881 10.0107 6.06914 10.6688C6.01215 10.9113 5.95298 11.1561 5.89367 11.398L5.9097 11.4288C6.26603 11.41 6.37417 11.41 6.68386 11.4151L6.70893 11.3878C6.74828 11.1863 6.75338 11.1391 6.84053 10.7308C6.88149 10.5373 6.96689 10.112 7.00901 9.9606C7.0864 9.92475 7.16276 9.88948 7.23563 9.88948C7.40921 9.88948 7.38808 10.0409 7.38137 10.1012C7.37394 10.2025 7.31069 10.5334 7.24583 10.8174L7.20255 11.0007C7.17238 11.1361 7.1393 11.2677 7.10913 11.402L7.12225 11.4288C7.47348 11.41 7.5806 11.41 7.88053 11.4151L7.9158 11.3878C7.97001 11.073 7.9859 10.9888 8.08209 10.5304L8.13047 10.3199C8.22447 9.9077 8.27169 9.69871 8.20057 9.52849C8.12537 9.33772 7.94495 9.29166 7.77924 9.29166ZM9.48427 9.72318C9.29758 9.75903 9.17851 9.78293 9.06017 9.79838C8.94285 9.81718 8.82845 9.83423 8.64802 9.8593L8.63374 9.87227L8.62062 9.88262C8.60182 10.017 8.5887 10.1331 8.56378 10.2697C8.54265 10.4109 8.51015 10.5714 8.45725 10.8019C8.41629 10.9784 8.39516 11.0399 8.37184 11.102C8.34911 11.1641 8.32404 11.2244 8.27799 11.398L8.28877 11.414L8.29781 11.4288C8.46643 11.4208 8.57675 11.4151 8.69014 11.414C8.80338 11.41 8.9207 11.414 9.10229 11.4151L9.11818 11.4021L9.13523 11.3878C9.16146 11.2313 9.16539 11.1892 9.18143 11.1128C9.19731 11.0309 9.22471 10.9175 9.2919 10.6147C9.32367 10.4724 9.35908 10.3306 9.39202 10.1855C9.42627 10.0409 9.46212 9.8985 9.49622 9.75626L9.49112 9.73907L9.48427 9.72318ZM9.48825 9.14136C9.31861 9.04124 9.02086 9.07301 8.82047 9.21132C8.62066 9.34685 8.59793 9.53923 8.76699 9.64066C8.93371 9.73802 9.23262 9.70901 9.43127 9.56954C9.63064 9.43109 9.65556 9.24046 9.48825 9.14136ZM10.5142 11.4601C10.8574 11.4601 11.2092 11.3656 11.474 11.0849C11.6778 10.8572 11.7712 10.5185 11.8035 10.3791C11.9089 9.91677 11.8269 9.70093 11.7238 9.56947C11.5673 9.36908 11.2907 9.30481 11.0037 9.30481C10.8312 9.30481 10.4202 9.32186 10.0991 9.61785C9.86856 9.83136 9.76202 10.1211 9.69775 10.3989C9.6329 10.6819 9.55828 11.1914 10.0268 11.381C10.1714 11.4431 10.3798 11.4601 10.5142 11.4601ZM10.4874 10.42C10.5665 10.0699 10.6599 9.77613 10.8983 9.77613C11.0852 9.77613 11.0987 9.99474 11.0157 10.346C11.0008 10.4239 10.9326 10.7138 10.8403 10.8373C10.7759 10.9283 10.6997 10.9836 10.6155 10.9836C10.5904 10.9836 10.4413 10.9836 10.439 10.7622C10.4378 10.6529 10.4601 10.5413 10.4874 10.42ZM12.6615 11.4151L12.6883 11.3879C12.7264 11.1863 12.7326 11.1389 12.8169 10.7309C12.859 10.5373 12.9461 10.1121 12.9871 9.96065C13.0646 9.92465 13.1397 9.88938 13.2149 9.88938C13.3873 9.88938 13.3663 10.0408 13.3594 10.1011C13.3532 10.2026 13.2899 10.5333 13.2239 10.8173L13.183 11.0006C13.1516 11.1362 13.1175 11.2676 13.0874 11.402L13.1005 11.4288C13.4529 11.41 13.5559 11.41 13.8576 11.4151L13.894 11.3879C13.9469 11.0729 13.9612 10.9887 14.0603 10.5305L14.1075 10.3197C14.202 9.9076 14.2498 9.69875 14.1798 9.52853C14.1024 9.33776 13.9208 9.29171 13.7575 9.29171C13.6492 9.29171 13.4505 9.31779 13.274 9.40494C13.2109 9.43803 13.1477 9.47607 13.0856 9.51425L13.1397 9.30482L13.1107 9.26941C12.7344 9.34577 12.6484 9.35598 12.3011 9.40494L12.2744 9.42433C12.2323 9.75909 12.1981 10.0106 12.0484 10.6688C11.9914 10.9113 11.9322 11.1561 11.8731 11.3981L11.8889 11.4288C12.2459 11.41 12.3524 11.41 12.6615 11.4151ZM15.2506 11.4288C15.2728 11.3206 15.4044 10.6797 15.4056 10.6797C15.4056 10.6797 15.5176 10.2094 15.5245 10.1923C15.5245 10.1923 15.5597 10.1433 15.595 10.1239H15.6469C16.1364 10.1239 16.6892 10.1239 17.1225 9.80522C17.4173 9.58661 17.6189 9.2638 17.7088 8.87147C17.7321 8.77528 17.7493 8.66087 17.7493 8.54647C17.7493 8.39621 17.7192 8.24756 17.632 8.1314C17.4111 7.82229 16.9711 7.81661 16.4632 7.81427C16.4616 7.81427 16.2128 7.81661 16.2128 7.81661C15.5627 7.82462 15.3019 7.82229 15.1948 7.80917C15.1858 7.85654 15.1687 7.94078 15.1687 7.94078C15.1687 7.94078 14.9358 9.02012 14.9358 9.02187C14.9358 9.02187 14.3785 11.3167 14.3523 11.4248C14.92 11.418 15.1527 11.418 15.2506 11.4288ZM15.6822 9.51141C15.6822 9.51141 15.9298 8.43425 15.9286 8.43833L15.9366 8.38309L15.9401 8.34098L16.0391 8.35118C16.0391 8.35118 16.5498 8.39504 16.5617 8.39621C16.7633 8.47418 16.8463 8.67516 16.7883 8.93749C16.7354 9.17723 16.5799 9.37878 16.3801 9.47614C16.2156 9.55863 16.014 9.56548 15.8063 9.56548H15.672L15.6822 9.51141ZM17.2239 10.44C17.1584 10.7189 17.0832 11.2284 17.5494 11.41C17.6981 11.4732 17.8313 11.492 17.9667 11.4852C18.1097 11.4775 18.2421 11.4058 18.3648 11.3026C18.3538 11.345 18.3427 11.3874 18.3316 11.43L18.3527 11.4572C18.6881 11.4431 18.7922 11.4431 19.1555 11.4458L19.1884 11.4208C19.2415 11.1089 19.2915 10.8061 19.4293 10.2094C19.4965 9.9236 19.5636 9.64058 19.6325 9.35595L19.6217 9.32461C19.2466 9.39413 19.1463 9.409 18.7854 9.46015L18.7581 9.48245C18.7544 9.51145 18.7506 9.53929 18.7471 9.56712C18.691 9.47647 18.6097 9.39909 18.4842 9.35085C18.3237 9.28774 17.9469 9.36906 17.6229 9.66404C17.3952 9.87463 17.2859 10.1632 17.2239 10.44ZM18.0117 10.457C18.092 10.1132 18.1843 9.82231 18.4233 9.82231C18.5744 9.82231 18.654 9.96179 18.6378 10.1996C18.625 10.2589 18.6111 10.3215 18.5947 10.3922C18.5708 10.4943 18.5448 10.5956 18.5196 10.697C18.494 10.7664 18.4641 10.8318 18.4313 10.8754C18.3698 10.9626 18.2235 11.0166 18.1392 11.0166C18.1153 11.0166 17.9679 11.0166 17.9628 10.7992C17.9616 10.6909 17.9839 10.5794 18.0117 10.457ZM22.126 9.32183L22.097 9.28875C21.7258 9.36395 21.6586 9.3759 21.3176 9.42195L21.2925 9.44702C21.2914 9.4511 21.2903 9.45737 21.2886 9.46305L21.2874 9.45737C21.0335 10.0431 21.041 9.91674 20.8343 10.3779C20.8332 10.3569 20.8332 10.3438 20.832 10.3215L20.7803 9.32183L20.7478 9.28875C20.3589 9.36395 20.3497 9.3759 19.9906 9.42195L19.9627 9.44702C19.9587 9.45897 19.9587 9.47209 19.9564 9.48637L19.9587 9.49147C20.0036 9.72086 19.9928 9.66971 20.0379 10.0317C20.0588 10.2094 20.0868 10.3881 20.1078 10.5635C20.1432 10.8572 20.163 11.0018 20.2063 11.4499C19.9638 11.8501 19.9064 12.0015 19.6729 12.3528L19.6745 12.3563L19.5101 12.6163C19.4913 12.6437 19.4743 12.6625 19.4504 12.6705C19.4242 12.6834 19.39 12.6858 19.3427 12.6858H19.2516L19.1162 13.1361L19.5807 13.1441C19.8534 13.143 20.0247 13.0154 20.117 12.8441L20.4091 12.3436H20.4044L20.4351 12.3083C20.6316 11.8854 22.126 9.32183 22.126 9.32183ZM17.2238 15.2363H17.0268L17.7561 12.8242H17.998L18.0748 12.5757L18.0822 12.852C18.0732 13.0228 18.2076 13.1742 18.5606 13.1492H18.9688L19.1093 12.6847H18.9557C18.8673 12.6847 18.8264 12.6624 18.8315 12.6146L18.8241 12.3335H18.0681V12.3349C17.8237 12.34 17.0938 12.3584 16.9461 12.3977C16.7672 12.4438 16.5788 12.5793 16.5788 12.5793L16.6528 12.3305H15.9457L15.7984 12.8242L15.0593 15.2732H14.9159L14.7753 15.7343H16.1837L16.1365 15.888H16.8305L16.8765 15.7343H17.0712L17.2238 15.2363ZM16.646 13.3143C16.5327 13.3456 16.322 13.4406 16.322 13.4406L16.5094 12.8242H17.0712L16.9357 13.2733C16.9357 13.2733 16.7621 13.2835 16.646 13.3143ZM16.6568 14.195C16.6568 14.195 16.4803 14.2171 16.3641 14.2434C16.2497 14.2781 16.0352 14.3874 16.0352 14.3874L16.2287 13.7458H16.7935L16.6568 14.195ZM16.342 15.242H15.7784L15.9418 14.7006H16.5036L16.342 15.242ZM17.6992 13.7458H18.5115L18.3948 14.1239H17.5717L17.4481 14.5372H18.1683L17.623 15.3051C17.5848 15.3615 17.5505 15.3814 17.5125 15.3973C17.4743 15.4167 17.4242 15.4394 17.3662 15.4394H17.1664L17.0291 15.8921H17.5517C17.8234 15.8921 17.9838 15.7685 18.1023 15.6063L18.4763 15.0945L18.5566 15.6142C18.5736 15.7115 18.6436 15.7685 18.6909 15.7907C18.7433 15.8169 18.7973 15.8619 18.8737 15.8687C18.9556 15.8721 19.0148 15.8749 19.0541 15.8749H19.3109L19.4651 15.3683H19.3638C19.3057 15.3683 19.2055 15.3586 19.1885 15.3403C19.1714 15.3182 19.1714 15.2841 19.1623 15.2322L19.0808 14.7113H18.7472L18.8935 14.5372H19.715L19.8414 14.1239H19.0808L19.1993 13.7458H19.9576L20.0982 13.2796H17.8375L17.6992 13.7458ZM10.838 15.3472L11.0276 14.7165H11.8069L11.9493 14.2473H11.1693L11.2884 13.8591H12.0506L12.1918 13.4048H10.2847L10.1464 13.8591H10.5796L10.4641 14.2473H10.0296L9.88564 14.7245H10.3188L10.0661 15.559C10.032 15.6695 10.0821 15.7116 10.1139 15.7629C10.1464 15.8129 10.1793 15.846 10.2533 15.8648C10.3297 15.8818 10.382 15.892 10.4531 15.892H11.3317L11.4882 15.3723L11.0988 15.4258C11.0236 15.4258 10.8153 15.4168 10.838 15.3472ZM10.9274 12.3277L10.7299 12.6846C10.6877 12.7626 10.6496 12.811 10.6154 12.8333C10.5852 12.8521 10.5255 12.8599 10.4389 12.8599H10.3359L10.1981 13.3165H10.5403C10.7049 13.3165 10.8312 13.2562 10.8916 13.226C10.9564 13.1914 10.9735 13.2112 11.0236 13.1628L11.1392 13.0627H12.2077L12.3495 12.5873H11.5674L11.7039 12.3277H10.9274ZM12.505 15.3564C12.4867 15.3302 12.4999 15.284 12.5277 15.1878L12.8198 14.2211H13.8587C14.0102 14.2189 14.1195 14.2172 14.1906 14.2121C14.267 14.204 14.35 14.1768 14.4405 14.1278C14.5339 14.0765 14.5817 14.0225 14.6221 13.9604C14.6672 13.8984 14.7394 13.7629 14.8015 13.5539L15.1686 12.3306L14.0905 12.3368C14.0905 12.3368 13.7585 12.3858 13.6123 12.4399C13.4648 12.5002 13.2541 12.6687 13.2541 12.6687L13.3514 12.3333H12.6854L11.753 15.4258C11.7199 15.5459 11.6977 15.633 11.6926 15.6853C11.6909 15.7417 11.7637 15.7976 11.811 15.8397C11.8668 15.8818 11.9493 15.8749 12.0284 15.8818C12.1116 15.8881 12.23 15.892 12.3933 15.892H12.9052L13.0623 15.3615L12.6041 15.4048C12.5551 15.4048 12.5197 15.3786 12.505 15.3564ZM13.0082 13.5682H14.0995L14.0301 13.7856C14.0204 13.7907 13.997 13.7748 13.886 13.788H12.941L13.0082 13.5682ZM13.2268 12.8389H14.3273L14.2482 13.1008C14.2482 13.1008 13.7295 13.0957 13.6464 13.111C13.2809 13.1743 13.0674 13.3695 13.0674 13.3695L13.2268 12.8389ZM14.0546 14.5138C14.0455 14.5463 14.0312 14.5661 14.0113 14.581C13.9891 14.5953 13.9533 14.6004 13.8998 14.6004H13.7443L13.7535 14.3355H13.1067L13.0804 15.6301C13.0794 15.7236 13.0884 15.7776 13.1568 15.8209C13.2252 15.875 13.4357 15.8818 13.7192 15.8818H14.1245L14.2708 15.3973L13.918 15.4166L13.8007 15.4235C13.7846 15.4166 13.7693 15.4104 13.7523 15.3933C13.7374 15.3786 13.7124 15.3876 13.7164 15.2942L13.7192 14.9624L14.0892 14.9471C14.289 14.9471 14.3744 14.8821 14.4473 14.8201C14.5168 14.7608 14.5396 14.6926 14.5658 14.6004L14.6279 14.3065H14.1194L14.0546 14.5138Z" fill="#FEFEFE"/>
</g>
<defs>
<clipPath id="clip0_2356_139379">
<rect width="24" height="15" fill="white" transform="translate(0 4)"/>
</clipPath>
</defs>
</svg>
